<svg id="Layer_1" data-name="Layer 1" xmlns="http://www.w3.org/2000/svg" viewBox="0 0 1464.58 484.47"><defs><style>.cls-1{fill:#3b5998;stroke:#edf6fb;stroke-miterlimit:10;stroke-width:15px;}.cls-2,.cls-3{fill:#edf6fb;}.cls-3{font-size:125.35px;font-family:Poppins-Regular, Poppins;}</style></defs><title>addme</title><path class="cls-1" d="M1052.28,559.47h386.08c19.14,0,34.73-15.18,34.73-33.88V123.85c0-18.7-15.59-33.85-34.73-33.85H1052.28" transform="translate(-16 -82.5)"/><polyline class="cls-1" points="1038.78 7.5 7.5 7.5 7.5 476.97 1038.76 476.97"/><g id="f"><path class="cls-2" d="M1331.76,560V379.83h60.48l9.05-70.22h-69.53V264.78c0-20.33,5.65-34.18,34.8-34.18l37.18,0v-62.8c-6.43-.85-28.5-2.77-54.18-2.77-53.61,0-90.31,32.72-90.31,92.82v51.78h-60.63v70.22h60.63V560Z" transform="translate(-16 -82.5)"/></g><text class="cls-3" transform="translate(296.46 294.87)">Friend me</text></svg>