<?xml version="1.0" encoding="utf-8"?>
<!-- Generator: Adobe Illustrator 21.1.0, SVG Export Plug-In . SVG Version: 6.00 Build 0)  -->
<svg version="1.1" id="Layer_1" xmlns="http://www.w3.org/2000/svg" xmlns:xlink="http://www.w3.org/1999/xlink" x="0px" y="0px"
	 viewBox="0 0 713.5 86.3" style="enable-background:new 0 0 713.5 86.3;" xml:space="preserve">
<style type="text/css">
	.st0{fill:#F8333C;}
	.st1{fill:#E6C229;}
	.st2{fill:#20BF55;}
	.st3{fill:#0496FF;}
</style>
<title>namex</title>
<path class="st0" d="M53.9,46.9H11v38.2H0V0.8h11v37h42.9v-37h11v84.3h-11L53.9,46.9L53.9,46.9z"/>
<path class="st1" d="M110.9,17.8c12.3,0,20.8,6.3,24.7,13.2V18.9h11.1v66.3h-11.1V72.9c-4,7.1-12.6,13.4-24.8,13.4
	c-17.7,0-31.3-13.9-31.3-34.5S93.1,17.8,110.9,17.8z M113.1,27.3c-12.1,0-22.4,8.8-22.4,24.4s10.3,24.8,22.4,24.8
	s22.5-9.1,22.5-24.7C135.6,36.5,125.2,27.3,113.1,27.3L113.1,27.3z"/>
<path class="st2" d="M194.2,86.2c-18.7,0-33-13.3-33-34.3s14.8-34.1,33.5-34.1c18.9,0,33.5,13.2,33.5,34.1S213.1,86.2,194.2,86.2z
	 M194.2,76.6c11.5,0,22.7-7.9,22.7-24.7s-11-24.5-22.4-24.5c-11.6,0-22.1,7.9-22.1,24.5C172.4,68.7,182.7,76.6,194.2,76.6z"/>
<path class="st1" d="M253.7,85.1h-11V18.8h11v10.8c3.7-7.4,10.9-12,21.4-12V29h-2.9c-10.5,0-18.5,4.7-18.5,20.1V85.1z"/>
<path class="st3" d="M315.1,17.8c12.3,0,20.8,6.3,24.7,13.2V18.9h11.1v66.3h-11.1V72.9c-4,7.1-12.6,13.4-24.8,13.4
	c-17.7,0-31.3-13.9-31.3-34.5S297.3,17.8,315.1,17.8z M317.3,27.3c-12.1,0-22.4,8.8-22.4,24.4s10.3,24.8,22.4,24.8
	c12.1,0,22.5-9.1,22.5-24.7C339.8,36.5,329.4,27.3,317.3,27.3z"/>
<path class="st1" d="M418,47.7c0-13.5-7.4-20.4-18.5-20.4s-19,7-19,21.3v36.6h-11V18.9h11v9.4c4.4-6.9,12.3-10.6,21.3-10.6
	c15.4,0,27.1,9.4,27.1,28.4v39.1H418V47.7z"/>
<path class="st2" d="M556.2,25.3H543c-4.6-9.8-13.8-15.5-25.6-15.5c-17.8,0-31.1,12.8-31.1,33.1s13.3,33,31.1,33
	c16.6,0,27.9-10.6,29.6-27.3h-33.6v-8.9h45.3v8.5c-1.9,20.9-18.5,37.7-41.4,37.7C493.6,85.9,475,68.2,475,43s18.6-43,42.3-43
	C535.2-0.1,549.9,9.1,556.2,25.3z"/>
<path class="st1" d="M632,85.1h-11v-9.8c-4.2,6.9-12.3,10.8-21.2,10.8c-15.2,0-27.2-9.4-27.2-28.4V18.9h10.9v37.3
	c0,13.4,7.4,20.3,18.5,20.3c11.4,0,19-7,19-21.3V18.8h11V85.1z"/>
<path class="st0" d="M679.5,86.2c-18.7,0-33-13.3-33-34.3s14.8-34.1,33.5-34.1c18.9,0,33.5,13.2,33.5,34.1S698.4,86.2,679.5,86.2z
	 M679.5,76.6c11.5,0,22.7-7.9,22.7-24.7s-11-24.5-22.4-24.5c-11.6,0-22.1,7.9-22.1,24.5C657.8,68.7,668,76.6,679.5,76.6z"/>
</svg>
