<svg id="Layer_1" data-name="Layer 1" xmlns="http://www.w3.org/2000/svg" viewBox="0 0 630.52 328.04"><defs><style>.cls-1{fill:#286b69;}.cls-1,.cls-22,.cls-3{stroke:#1b2a41;}.cls-1,.cls-10,.cls-11,.cls-12,.cls-13,.cls-14,.cls-15,.cls-16,.cls-17,.cls-18,.cls-19,.cls-2,.cls-20,.cls-21,.cls-22,.cls-3,.cls-5,.cls-6,.cls-7,.cls-8,.cls-9{stroke-miterlimit:10;}.cls-2{fill:#e0fdff;stroke:#e0fdff;}.cls-19,.cls-22,.cls-3{fill:none;}.cls-3,.cls-9{stroke-width:7px;}.cls-21,.cls-4{fill:#ccfccb;}.cls-5,.cls-6,.cls-9{fill:#fff;}.cls-5,.cls-9{stroke:#000;}.cls-6{stroke:#8a8e91;}.cls-7{fill:#9d5c63;stroke:#9d5c63;}.cls-14,.cls-8{fill:#f1e9da;}.cls-20,.cls-8{stroke:#f1e9da;}.cls-10{fill:#ebcfb2;stroke:#ebcfb2;}.cls-11{fill:#f6bd60;stroke:#f6bd60;}.cls-12{fill:#a5978b;stroke:#a5978b;}.cls-13{fill:#f5cac3;stroke:#f5cac3;}.cls-14{stroke:#5c4742;}.cls-15{fill:#d6edff;stroke:#4c5b5c;}.cls-16{fill:#c2fcf7;stroke:#87d68d;}.cls-17{fill:#262728;stroke:#262728;}.cls-18{fill:#75dddd;stroke:#75dddd;}.cls-19{stroke:#56a1a1;}.cls-20{fill:#d6e3f8;}.cls-21{stroke:#6290c3;}</style></defs><title>coloredden2</title><polyline class="cls-1" points="2.05 314.88 62.05 208.88 90.05 221.88 140.05 113.88 174.05 129.88 229.05 26.88 287.05 72.88 327.05 6.88 405.05 101.88 458.05 60.88 487.05 121.88 504.05 97.88 565.05 232.88 593.05 217.88 630.05 327.88"/><polyline class="cls-2" points="469.05 136.88 496.05 128.88 503.05 140.88 505.05 128.88 515.05 132.88 521.31 132.88 505.05 96.88"/><polyline class="cls-2" points="116.51 164.88 131.05 172.88 141.05 159.88 152.05 183.88 157.05 159.88 167.05 159.88 177.05 140.88 177.05 128.88 141.05 112.88"/><polyline class="cls-2" points="175.05 143.88 206.05 111.88 220.05 123.88 231.05 94.88 236.05 111.88 258.05 90.88 273.05 104.88 278.05 85.88 294.05 90.88 310.05 69.71 318.05 115.88 330.05 81.88 342.05 95.88 359.05 82.88 371.05 99.88 388.05 99.88 404.05 123.88 425.05 106.88 439.05 119.88 460.05 111.88 469.05 135.88 488.05 123.88 457.05 62.88 407.05 103.88 326.05 8.88 286.05 69.05 228.05 28.88 175.05 123.88"/><polyline class="cls-3" points="626.05 313.88 594.05 216.88 566.05 231.88 505.05 96.88 489.05 119.88 459.05 61.88 409.05 99.88 406.49 96.88 329.05 5.88 287.05 71.88 231.05 25.88 175.05 127.88 141.05 111.88 91.05 219.88 63.05 207.88 3.05 313.88 63.05 207.88 91.05 220.88 116.51 164.88"/><polyline class="cls-4" points="280.05 159.88 263.05 159.88 263.05 313.88 280.05 313.88"/><path class="cls-5" d="M596.5,327.5" transform="translate(-368.45 -225.62)"/><path class="cls-5" d="M601.5,317.5" transform="translate(-368.45 -225.62)"/><line class="cls-6" x1="233.05" y1="82.88" x2="233.05" y2="91.88"/><line class="cls-6" x1="243.05" y1="91.88" x2="243.05" y2="82.88"/><path class="cls-7" d="M758.5,433.5v-29h-10v-5s53-7,68,46l-4,2-3-9v101h-51" transform="translate(-368.45 -225.62)"/><polyline class="cls-8" points="457.05 313.88 457.05 149.88 505.05 149.88 505.05 313.88"/><path class="cls-9" d="M482.5,395.82" transform="translate(-368.45 -225.62)"/><polyline class="cls-10" points="188.05 313.88 188.05 159.88 193.05 159.88 193.05 149.88 223.05 149.88 223.05 159.88 228.05 159.88 228.05 313.88"/><polyline class="cls-11" points="113.05 313.88 113.05 215.88 181.05 215.88 181.05 313.88"/><path class="cls-12" d="M718.5,539.5h-70v-191s-1-32,34-35v-28c38,5,36,51,36,51v203h40v-106h-40Z" transform="translate(-368.45 -225.62)"/><rect class="cls-13" x="350.05" y="207.88" width="40" height="106"/><rect class="cls-14" x="288.05" y="128.88" width="8" height="8"/><rect class="cls-14" x="312.05" y="128.88" width="8" height="8"/><rect class="cls-14" x="300.05" y="128.88" width="8" height="8"/><rect class="cls-14" x="324.05" y="128.88" width="8" height="8"/><rect class="cls-14" x="336.05" y="128.88" width="8" height="8"/><rect class="cls-14" x="288.05" y="140.88" width="8" height="8"/><rect class="cls-14" x="312.05" y="140.88" width="8" height="8"/><rect class="cls-14" x="300.05" y="140.88" width="8" height="8"/><rect class="cls-14" x="324.05" y="140.88" width="8" height="8"/><rect class="cls-14" x="336.05" y="140.88" width="8" height="8"/><rect class="cls-14" x="288.05" y="152.88" width="8" height="8"/><rect class="cls-14" x="312.05" y="152.88" width="8" height="8"/><rect class="cls-14" x="300.05" y="152.88" width="8" height="8"/><rect class="cls-14" x="324.05" y="152.88" width="8" height="8"/><rect class="cls-14" x="336.05" y="152.88" width="8" height="8"/><rect class="cls-14" x="288.05" y="164.88" width="8" height="8"/><rect class="cls-14" x="312.05" y="164.88" width="8" height="8"/><rect class="cls-14" x="300.05" y="164.88" width="8" height="8"/><rect class="cls-14" x="324.05" y="164.88" width="8" height="8"/><rect class="cls-14" x="336.05" y="164.88" width="8" height="8"/><rect class="cls-14" x="288.05" y="176.88" width="8" height="8"/><rect class="cls-14" x="312.05" y="176.88" width="8" height="8"/><rect class="cls-14" x="300.05" y="176.88" width="8" height="8"/><rect class="cls-14" x="324.05" y="176.88" width="8" height="8"/><rect class="cls-14" x="336.05" y="176.88" width="8" height="8"/><rect class="cls-14" x="288.05" y="188.88" width="8" height="8"/><rect class="cls-14" x="312.05" y="188.88" width="8" height="8"/><rect class="cls-14" x="300.05" y="188.88" width="8" height="8"/><rect class="cls-14" x="324.05" y="188.88" width="8" height="8"/><rect class="cls-14" x="336.05" y="188.88" width="8" height="8"/><rect class="cls-14" x="288.05" y="200.88" width="8" height="8"/><rect class="cls-14" x="312.05" y="200.88" width="8" height="8"/><rect class="cls-14" x="300.05" y="200.88" width="8" height="8"/><rect class="cls-14" x="324.05" y="200.88" width="8" height="8"/><rect class="cls-14" x="336.05" y="200.88" width="8" height="8"/><rect class="cls-14" x="288.05" y="212.88" width="8" height="8"/><rect class="cls-14" x="312.05" y="212.88" width="8" height="8"/><rect class="cls-14" x="300.05" y="212.88" width="8" height="8"/><rect class="cls-14" x="324.05" y="212.88" width="8" height="8"/><rect class="cls-14" x="336.05" y="212.88" width="8" height="8"/><rect class="cls-14" x="288.05" y="224.88" width="8" height="8"/><rect class="cls-14" x="312.05" y="224.88" width="8" height="8"/><rect class="cls-14" x="300.05" y="224.88" width="8" height="8"/><rect class="cls-14" x="324.05" y="224.88" width="8" height="8"/><rect class="cls-14" x="336.05" y="224.88" width="8" height="8"/><rect class="cls-14" x="288.05" y="236.88" width="8" height="8"/><rect class="cls-14" x="312.05" y="236.88" width="8" height="8"/><rect class="cls-14" x="300.05" y="236.88" width="8" height="8"/><rect class="cls-14" x="324.05" y="236.88" width="8" height="8"/><rect class="cls-14" x="336.05" y="236.88" width="8" height="8"/><rect class="cls-14" x="288.05" y="248.88" width="8" height="8"/><rect class="cls-14" x="312.05" y="248.88" width="8" height="8"/><rect class="cls-14" x="300.05" y="248.88" width="8" height="8"/><rect class="cls-14" x="324.05" y="248.88" width="8" height="8"/><rect class="cls-14" x="336.05" y="248.88" width="8" height="8"/><rect class="cls-14" x="288.05" y="260.88" width="8" height="8"/><rect class="cls-14" x="312.05" y="260.88" width="8" height="8"/><rect class="cls-14" x="300.05" y="260.88" width="8" height="8"/><rect class="cls-14" x="324.05" y="260.88" width="8" height="8"/><rect class="cls-14" x="336.05" y="260.88" width="8" height="8"/><rect class="cls-14" x="288.05" y="272.88" width="8" height="8"/><rect class="cls-14" x="312.05" y="272.88" width="8" height="8"/><rect class="cls-14" x="300.05" y="272.88" width="8" height="8"/><rect class="cls-14" x="324.05" y="272.88" width="8" height="8"/><rect class="cls-14" x="336.05" y="272.88" width="8" height="8"/><rect class="cls-14" x="288.05" y="284.88" width="8" height="8"/><rect class="cls-14" x="312.05" y="284.88" width="8" height="8"/><rect class="cls-14" x="300.05" y="284.88" width="8" height="8"/><rect class="cls-14" x="324.05" y="284.88" width="8" height="8"/><rect class="cls-14" x="336.05" y="284.88" width="8" height="8"/><rect class="cls-14" x="288.05" y="296.88" width="8" height="8"/><rect class="cls-14" x="312.05" y="296.88" width="8" height="8"/><rect class="cls-14" x="300.05" y="296.88" width="8" height="8"/><rect class="cls-14" x="324.05" y="296.88" width="8" height="8"/><rect class="cls-14" x="336.05" y="296.88" width="8" height="8"/><rect class="cls-14" x="288.05" y="116.88" width="8" height="8"/><rect class="cls-14" x="312.05" y="116.88" width="8" height="8"/><rect class="cls-14" x="300.05" y="116.88" width="8" height="8"/><rect class="cls-14" x="324.05" y="116.88" width="8" height="8"/><rect class="cls-14" x="336.05" y="116.88" width="8" height="8"/><rect class="cls-14" x="288.05" y="104.88" width="8" height="8"/><rect class="cls-14" x="312.05" y="104.88" width="8" height="8"/><rect class="cls-14" x="300.05" y="104.88" width="8" height="8"/><rect class="cls-14" x="324.05" y="104.88" width="8" height="8"/><rect class="cls-14" x="336.05" y="104.88" width="8" height="8"/><rect class="cls-14" x="312.05" y="92.88" width="8" height="8"/><rect class="cls-14" x="324.05" y="92.88" width="8" height="8"/><rect class="cls-14" x="336.05" y="92.88" width="8" height="8"/><rect class="cls-15" x="355.05" y="220.88" width="6" height="8"/><rect class="cls-15" x="355.05" y="228.88" width="6" height="8"/><rect class="cls-15" x="355.05" y="236.88" width="6" height="8"/><rect class="cls-15" x="355.05" y="244.88" width="6" height="8"/><rect class="cls-15" x="355.05" y="252.88" width="6" height="8"/><rect class="cls-15" x="367.05" y="220.88" width="6" height="8"/><rect class="cls-15" x="367.05" y="228.88" width="6" height="8"/><rect class="cls-15" x="367.05" y="236.88" width="6" height="8"/><rect class="cls-15" x="367.05" y="244.88" width="6" height="8"/><rect class="cls-15" x="367.05" y="252.88" width="6" height="8"/><rect class="cls-15" x="379.05" y="220.88" width="6" height="8"/><rect class="cls-15" x="379.05" y="228.88" width="6" height="8"/><rect class="cls-15" x="379.05" y="236.88" width="6" height="8"/><rect class="cls-15" x="379.05" y="244.88" width="6" height="8"/><rect class="cls-15" x="379.05" y="252.88" width="6" height="8"/><rect class="cls-16" x="118.05" y="228.25" width="59" height="9.25"/><rect class="cls-16" x="118.05" y="241.25" width="59" height="9.25"/><rect class="cls-16" x="118.05" y="254.25" width="59" height="9.25"/><rect class="cls-16" x="118.05" y="267.25" width="59" height="9.25"/><rect class="cls-16" x="118.05" y="280.25" width="59" height="9.25"/><rect class="cls-16" x="118.05" y="293.25" width="59" height="9.25"/><polyline class="cls-17" points="248.05 101.88 248.05 91.88 233.05 91.88 228.05 91.88 228.05 101.88"/><rect class="cls-18" x="213.05" y="101.88" width="50" height="212"/><line class="cls-19" x1="222.05" y1="101.38" x2="222.05" y2="313.38"/><line class="cls-19" x1="230.05" y1="101.38" x2="230.05" y2="313.38"/><line class="cls-19" x1="238.05" y1="101.38" x2="238.05" y2="313.38"/><polyline class="cls-19" points="246.05 101.38 246.05 216.88 246.05 313.38"/><polyline class="cls-19" points="255.05 101.38 255.05 216.88 255.05 313.38"/><rect class="cls-20" x="400.05" y="216.88" width="12" height="12"/><rect class="cls-20" x="400.05" y="232.88" width="12" height="12"/><rect class="cls-20" x="421.05" y="248.88" width="12" height="12"/><rect class="cls-20" x="400.05" y="264.88" width="12" height="12"/><rect class="cls-20" x="400.05" y="280.88" width="12" height="12"/><rect class="cls-20" x="421.05" y="232.88" width="12" height="12"/><rect class="cls-20" x="400.05" y="248.88" width="12" height="12"/><rect class="cls-20" x="421.05" y="264.88" width="12" height="12"/><rect class="cls-20" x="421.05" y="280.88" width="12" height="12"/><rect class="cls-21" x="459.05" y="167.88" width="7" height="31"/><rect class="cls-21" x="471.05" y="167.88" width="7" height="31"/><rect class="cls-21" x="483.05" y="167.88" width="7" height="31"/><rect class="cls-21" x="496.05" y="167.88" width="7" height="31"/><rect class="cls-21" x="459.05" y="202.88" width="7" height="31"/><rect class="cls-21" x="471.05" y="202.88" width="7" height="31"/><rect class="cls-21" x="483.05" y="202.88" width="7" height="31"/><rect class="cls-21" x="496.05" y="202.88" width="7" height="31"/><rect class="cls-21" x="459.05" y="237.88" width="7" height="31"/><rect class="cls-21" x="471.05" y="237.88" width="7" height="31"/><rect class="cls-21" x="483.05" y="237.88" width="7" height="31"/><rect class="cls-21" x="496.05" y="237.88" width="7" height="31"/><rect class="cls-21" x="459.05" y="272.88" width="7" height="31"/><rect class="cls-21" x="471.05" y="272.88" width="7" height="31"/><rect class="cls-21" x="483.05" y="272.88" width="7" height="31"/><rect class="cls-21" x="496.05" y="272.88" width="7" height="31"/><path class="cls-22" d="M371.5,539.5" transform="translate(-368.45 -225.62)"/></svg>