<svg id="Layer_1" data-name="Layer 1" xmlns="http://www.w3.org/2000/svg" viewBox="0 0 872 378"><defs><style>.cls-1{fill:#ea526f;stroke:#ea526f;}.cls-1,.cls-2,.cls-3,.cls-4,.cls-5,.cls-6,.cls-7,.cls-8{stroke-miterlimit:10;}.cls-2{fill:#fff;}.cls-2,.cls-3{stroke:#000;}.cls-3{fill:none;}.cls-4{fill:#8f91a2;stroke:#8f91a2;}.cls-5{fill:#c7a572;stroke:#c7a572;}.cls-6{fill:#f3c98b;stroke:#f3c98b;}.cls-7{fill:#f1e9da;stroke:#f1e9da;}.cls-8{fill:#b33951;stroke:#b33951;}</style></defs><title>coloredtAM</title><path class="cls-1" d="M756.5,420h-509V572.5H394V539.1c0-31.2,45.5-31.2,45.5,0v33.4h73V528.8c0-40.7,59-40.7,59,0v43.7h73V515.7c0-52.8,76.5-52.8,76.5,0v56.8h73V528.8c0-40.7,59-40.7,59,0v43.7h73V539.1c0-31.2,45.5-31.2,45.5,0v33.4h147V420Z" transform="translate(-247 -195)"/><path class="cls-2" d="M286.5,373.5" transform="translate(-247 -195)"/><path class="cls-3" d="M890.5,332.5" transform="translate(-247 -195)"/><polyline class="cls-4" points="0.5 225.5 0.5 204.5 391.7 204.5 871.5 204.5 871.5 225.5"/><path class="cls-3" d="M477.5,332.5" transform="translate(-247 -195)"/><path class="cls-3" d="M466.5,320.5" transform="translate(-247 -195)"/><path class="cls-3" d="M502.3,307.4" transform="translate(-247 -195)"/><path class="cls-3" d="M480.5,332.5" transform="translate(-247 -195)"/><path class="cls-3" d="M890.5,332.5" transform="translate(-247 -195)"/><path class="cls-4" d="M730.5,332.5h-253v67h11.1l-.1-40c0-13.5,27.5-13.5,27.5,0v39.6l-27.4.4h38l-.1-40c0-13.5,27.5-13.5,27.5,0v39.6l-27.4.4h38l-.1-40c0-13.5,27.5-13.5,27.5,0v39.6l-27.4.4h38l-.1-40c0-13.5,27.5-13.5,27.5,0v39.6l-27.4.4h37.9v-38c0-18.7,90-18.7,90,0v38h10.1l-.1-40c0-13.5,27.5-13.5,27.5,0v39.6l-27.4.4h38l-.1-40c0-13.5,27.5-13.5,27.5,0v39.6l-27.4.4h38l-.1-40c0-13.5,27.5-13.5,27.5,0v39.6l-27.4.4h38l-.1-40c0-13.5,27.5-13.5,27.5,0v39.6l-27.4.4h38.6v-67Z" transform="translate(-247 -195)"/><polygon class="cls-5" points="671 124.5 205 124.5 230.5 137.5 646.5 137.5 671 124.5"/><path class="cls-3" d="M917.5,319.5" transform="translate(-247 -195)"/><polygon class="cls-5" points="646.5 75.5 230.5 78.5 241.5 91.5 635.5 88.5 646.5 75.5"/><path class="cls-6" d="M893.5,270.5s-40-4-39-57l-339,2c1,51-38,58-38,58" transform="translate(-247 -195)"/><polyline class="cls-7" points="268.5 20.5 268.5 0.5 275.5 0.5 275.5 6.5 282.5 6.5 282.5 0.5 289.5 0.5 289.5 20.4"/><polyline class="cls-7" points="607.5 18.5 607.5 0.5 600.5 0.5 600.5 7.5 593.5 7.5 593.5 0.5 586.5 0.5 586.5 18.5"/><rect class="cls-8" x="548.5" y="235.5" width="243" height="23"/><rect class="cls-8" x="84.5" y="235.5" width="243" height="23"/><polygon class="cls-7" points="635.5 88.5 241.5 91.5 241.5 103.5 635.5 100.5 635.5 88.5"/><path class="cls-6" d="M451.5,319.5h466s-39-7-35-24l-394,3C488.2,313.8,470.8,317.1,451.5,319.5Z" transform="translate(-247 -195)"/><rect class="cls-7" x="410.5" y="210.9" width="51.4" height="66.6"/></svg>