<svg id="Layer_1" data-name="Layer 1" xmlns="http://www.w3.org/2000/svg" viewBox="0 0 1053.96 954.2"><defs><style>.cls-1,.cls-3{fill:#ce3006;}.cls-1,.cls-2,.cls-3{stroke:#ce3006;}.cls-1,.cls-15,.cls-17,.cls-2,.cls-3,.cls-4,.cls-5,.cls-6,.cls-7,.cls-8{stroke-miterlimit:10;}.cls-11,.cls-17,.cls-2,.cls-7{fill:none;}.cls-2,.cls-3{stroke-width:10px;}.cls-4{fill:#d0cfd1;stroke:#d0cfd1;}.cls-5{fill:#b1b1b2;stroke:#b1b1b2;}.cls-6{fill:#eaf9f7;stroke:#eaf9f7;}.cls-7{stroke:#000;}.cls-8{fill:#545454;stroke:#545454;}.cls-9{font-size:8.5px;}.cls-10,.cls-13,.cls-14,.cls-9{font-family:TimesNewRomanPSMT, Times New Roman;}.cls-10,.cls-13{font-size:8.5px;}.cls-12,.cls-13{letter-spacing:-0.02em;}.cls-14{font-size:8.5px;}.cls-15,.cls-16{fill:#578e71;}.cls-15,.cls-17{stroke:#578e71;}</style></defs><title>coloredberk</title><rect class="cls-1" x="250.71" y="909.81" width="43.1" height="43.1"/><rect class="cls-1" x="262.96" y="523.41" width="18.47" height="386.4"/><rect class="cls-1" x="760.18" y="909.81" width="43.1" height="43.1"/><rect class="cls-1" x="772.43" y="523.41" width="18.47" height="386.4"/><rect class="cls-1" x="0.5" y="776.05" width="1052.96" height="18.47"/><path class="cls-2" d="M746.38,627.19c0,246.68,491,246.68,491,0" transform="translate(-464.96 -69.09)"/><path class="cls-2" d="M727.92,627.19c0,123.34-122.75,185-245.5,185v32.94" transform="translate(-464.96 -69.09)"/><path class="cls-2" d="M1256.56,627.19c0,123.34,122.75,185,245.5,185v33.64" transform="translate(-464.96 -69.09)"/><line class="cls-3" x1="40.82" y1="776.04" x2="40.82" y2="743.11"/><line class="cls-3" x1="63.25" y1="776.04" x2="63.25" y2="743.11"/><line class="cls-3" x1="85.21" y1="776.04" x2="85.21" y2="736.7"/><line class="cls-3" x1="107.4" y1="776.04" x2="107.4" y2="731.89"/><line class="cls-3" x1="152.25" y1="776.04" x2="152.25" y2="715.78"/><line class="cls-3" x1="130.06" y1="776.04" x2="130.06" y2="724.89"/><line class="cls-3" x1="174.67" y1="776.04" x2="174.67" y2="703.16"/><line class="cls-3" x1="196.63" y1="776.04" x2="196.63" y2="687.74"/><line class="cls-3" x1="218.82" y1="776.04" x2="218.82" y2="669.52"/><line class="cls-3" x1="241.48" y1="775.34" x2="241.48" y2="638.69"/><line class="cls-3" x1="1014.45" y1="776.75" x2="1014.45" y2="743.81"/><line class="cls-3" x1="992.03" y1="776.75" x2="992.03" y2="739.6"/><line class="cls-3" x1="970.07" y1="776.75" x2="970.07" y2="737.4"/><line class="cls-3" x1="947.88" y1="776.75" x2="947.88" y2="732.6"/><line class="cls-3" x1="903.03" y1="776.75" x2="903.03" y2="716.48"/><line class="cls-3" x1="925.22" y1="776.75" x2="925.22" y2="725.59"/><line class="cls-3" x1="880.6" y1="776.75" x2="880.6" y2="703.86"/><line class="cls-3" x1="858.64" y1="776.75" x2="858.64" y2="688.45"/><line class="cls-3" x1="836.45" y1="776.75" x2="836.45" y2="670.23"/><line class="cls-3" x1="813.79" y1="778.15" x2="813.79" y2="640.09"/><line class="cls-3" x1="505.68" y1="776.75" x2="505.68" y2="743.81"/><line class="cls-3" x1="483.25" y1="776.75" x2="483.25" y2="743.81"/><line class="cls-3" x1="461.3" y1="776.75" x2="461.3" y2="737.4"/><line class="cls-3" x1="439.1" y1="776.75" x2="439.1" y2="732.6"/><line class="cls-3" x1="394.25" y1="776.75" x2="394.25" y2="716.48"/><line class="cls-3" x1="416.45" y1="776.75" x2="416.45" y2="725.59"/><line class="cls-3" x1="371.83" y1="776.75" x2="371.83" y2="703.86"/><line class="cls-3" x1="349.87" y1="775.69" x2="349.87" y2="689.5"/><line class="cls-3" x1="327.68" y1="776.75" x2="327.68" y2="670.23"/><line class="cls-3" x1="305.02" y1="776.75" x2="305.02" y2="642.89"/><line class="cls-3" x1="549.6" y1="776.04" x2="549.6" y2="743.11"/><line class="cls-3" x1="572.02" y1="776.04" x2="572.02" y2="743.11"/><line class="cls-3" x1="593.98" y1="776.04" x2="593.98" y2="736.7"/><line class="cls-3" x1="616.17" y1="776.04" x2="616.17" y2="731.89"/><line class="cls-3" x1="661.02" y1="776.04" x2="661.02" y2="715.78"/><line class="cls-3" x1="638.83" y1="776.04" x2="638.83" y2="724.89"/><line class="cls-3" x1="683.45" y1="776.04" x2="683.45" y2="703.16"/><line class="cls-3" x1="705.41" y1="776.39" x2="705.41" y2="690.2"/><line class="cls-3" x1="727.6" y1="776.04" x2="727.6" y2="669.52"/><line class="cls-3" x1="750.26" y1="776.75" x2="750.26" y2="640.09"/><line class="cls-3" x1="526.98" y1="746.61" x2="526.98" y2="776.75"/><rect class="cls-4" x="847.33" y="302.03" width="112.27" height="651.67"/><rect class="cls-5" x="869.65" y="317.26" width="71.04" height="636.44"/><rect class="cls-4" x="839.54" y="293.53" width="127.5" height="8.5"/><rect class="cls-4" x="839.54" y="170.99" width="127.5" height="8.5"/><polyline class="cls-4" points="959.25 170.99 959.25 149.74 943.66 149.74 943.66 160.37 862.91 160.37 862.91 149.74 847.33 149.74 847.33 170.99"/><polygon class="cls-4" points="847.33 149.74 849.46 123.53 860.79 123.53 862.91 149.74 847.33 149.74"/><polygon class="cls-4" points="943.66 149.74 945.79 123.53 957.12 123.53 959.25 149.74 943.66 149.74"/><rect class="cls-4" x="852.11" y="117.16" width="5.84" height="6.37"/><polygon class="cls-4" points="852.29 117.16 855.12 107.24 857.96 117.16 852.29 117.16"/><rect class="cls-4" x="948.44" y="117.16" width="5.84" height="6.37"/><polygon class="cls-4" points="948.62 117.16 951.46 107.24 954.29 117.16 948.62 117.16"/><polygon class="cls-6" points="909.07 30.74 939.41 134.16 944.39 140.83 943.66 149.74 943.66 160.37 862.91 160.37 862.91 149.74 862.19 140.83 867.16 134.16 899.98 30.74 909.07 30.74"/><path class="cls-7" d="M1391.63,95.58" transform="translate(-464.96 -69.09)"/><rect class="cls-6" x="896.49" y="26.49" width="15.58" height="4.96"/><polygon class="cls-6" points="899.63 26.49 909.31 26.49 909.31 14.1 899.76 14.1 899.63 26.49"/><polygon class="cls-6" points="902.23 14.1 904.71 2.41 907.18 14.1 902.23 14.1"/><rect class="cls-8" x="901.93" y="910.24" width="6.97" height="27.87"/><rect class="cls-8" x="901.93" y="825.23" width="6.97" height="27.87"/><rect class="cls-8" x="901.93" y="740.21" width="6.97" height="27.87"/><rect class="cls-8" x="901.93" y="655.19" width="6.97" height="27.87"/><rect class="cls-8" x="901.93" y="570.17" width="6.97" height="27.87"/><rect class="cls-8" x="901.93" y="485.16" width="6.97" height="27.87"/><rect class="cls-8" x="901.93" y="400.14" width="6.97" height="27.87"/><text class="cls-9" transform="translate(900.57 327.65)">XII</text><text class="cls-10" transform="translate(918.09 331.16) rotate(30)">I</text><text class="cls-10" transform="translate(925.77 338.28) rotate(60)">II</text><text class="cls-9" transform="translate(929.98 346.44) rotate(90)">III</text><line class="cls-11" x1="905.77" y1="320.1" x2="905.77" y2="384.56"/><text class="cls-10" transform="translate(898.18 374.8) rotate(-150)">V<tspan x="6.14" y="0">I</tspan><tspan x="8.97" y="0">I</tspan></text><text class="cls-10" transform="translate(928.64 359.22) rotate(120)">I<tspan class="cls-12" x="2.83" y="0">V</tspan></text><text class="cls-13" transform="translate(921.06 370.36) rotate(150)">V</text><text class="cls-9" transform="translate(910.84 376.38) rotate(180)">VI</text><text class="cls-10" transform="translate(887.04 367.26) rotate(-120) scale(0.65 1)">VIII</text><text class="cls-9" transform="translate(881.79 355.41) rotate(-90)">IX</text><text class="cls-14" transform="matrix(0.36, -0.93, 0.93, 0.36, 883.5, 341.97)">X</text><text class="cls-10" transform="translate(888.97 333.28) rotate(-30)">XI</text><polyline class="cls-15" points="900.02 346.58 928.11 362.8 901.64 344.79"/><circle class="cls-15" cx="1365.34" cy="414.34" r="1.61" transform="translate(-496.95 56.6) rotate(-5.21)"/><rect class="cls-15" x="1375.31" y="410.96" width="2.13" height="25.94" transform="translate(-290.53 1148.24) rotate(-50.55)"/><path class="cls-16" d="M1371.47,421.79a2.65,2.65,0,1,1,.49,0A2.65,2.65,0,0,1,1371.47,421.79Z" transform="translate(-464.96 -69.09)"/><path class="cls-16" d="M1371.48,417h0a2.15,2.15,0,0,1,.39,4.26,2.17,2.17,0,0,1-.4,0,2.15,2.15,0,0,1-.39-4.26,2.17,2.17,0,0,1,.4,0m0-1a3.15,3.15,0,1,0,3.09,2.57,3.16,3.16,0,0,0-3.09-2.57Z" transform="translate(-464.96 -69.09)"/><circle class="cls-15" cx="1365.65" cy="415.14" r="1.61" transform="translate(-517.88 187.91) rotate(-10.55)"/><path class="cls-16" d="M1390.3,434.95c-1.86-8-6-4.65-6-4.65s-2.81,5.1,5.79,4.89Z" transform="translate(-464.96 -69.09)"/><path class="cls-17" d="M1390.3,434.95c-1.86-8-6-4.65-6-4.65s-2.81,5.1,5.79,4.89Z" transform="translate(-464.96 -69.09)"/><path class="cls-4" d="M1312.29,248.58v114h111.92v-114ZM1408.5,362.5h-81v-98h81Z" transform="translate(-464.96 -69.09)"/><path class="cls-5" d="M1328.15,259.63v102h81.47v-102Zm26.58,96.7h-19.48V285.15c0-22.23,19.48-22.23,19.48,0Zm24.08,0h-19.48V285.15c0-22.23,19.48-22.23,19.48,0Zm24.79,0h-19.48V285.15c0-22.23,19.48-22.23,19.48,0Z" transform="translate(-464.96 -69.09)"/></svg>