<svg id="Layer_1" data-name="Layer 1" xmlns="http://www.w3.org/2000/svg" viewBox="0 0 1054 954.19"><defs><style>.cls-1{fill:#545454;stroke:#545454;}.cls-1,.cls-12,.cls-14,.cls-2,.cls-3,.cls-4,.cls-5,.cls-6,.cls-7{stroke-miterlimit:10;}.cls-2{fill:#ce3006;}.cls-2,.cls-3{stroke:#ce3006;}.cls-14,.cls-3,.cls-7,.cls-9{fill:none;}.cls-3{stroke-width:10px;}.cls-4{fill:#d0cfd1;stroke:#d0cfd1;}.cls-5{fill:#b1b1b2;stroke:#b1b1b2;}.cls-6{fill:#eaf9f7;stroke:#eaf9f7;}.cls-7{stroke:#000;}.cls-10,.cls-11,.cls-8{isolation:isolate;font-family:TimesNewRomanPSMT, Times New Roman;}.cls-10,.cls-8{font-size:8.5px;}.cls-10{letter-spacing:-0.02em;}.cls-11{font-size:8.48px;}.cls-12,.cls-13{fill:#578e71;}.cls-12,.cls-14{stroke:#578e71;}</style></defs><title>coloredberk</title><rect class="cls-1" x="863.2" y="190.49" width="81.5" height="102"/><rect class="cls-2" x="250.7" y="909.79" width="43.1" height="43.1"/><rect class="cls-2" x="263" y="523.39" width="18.5" height="386.4"/><rect class="cls-2" x="760.2" y="909.79" width="43.1" height="43.1"/><rect class="cls-2" x="772.4" y="523.39" width="18.5" height="386.4"/><rect class="cls-2" x="0.5" y="775.99" width="1053" height="18.5"/><path class="cls-3" d="M281.4,558.1c0,246.7,491,246.7,491,0" transform="translate(0 -0.01)"/><path class="cls-3" d="M263,558.1c0,123.3-122.8,185-245.5,185V776" transform="translate(0 -0.01)"/><path class="cls-3" d="M791.6,558.1c0,123.3,122.8,185,245.5,185v33.6" transform="translate(0 -0.01)"/><line class="cls-3" x1="40.8" y1="775.99" x2="40.8" y2="743.09"/><line class="cls-3" x1="63.3" y1="775.99" x2="63.3" y2="743.09"/><line class="cls-3" x1="85.2" y1="775.99" x2="85.2" y2="736.69"/><line class="cls-3" x1="107.4" y1="775.99" x2="107.4" y2="731.89"/><line class="cls-3" x1="152.3" y1="775.99" x2="152.3" y2="715.79"/><line class="cls-3" x1="130.1" y1="775.99" x2="130.1" y2="724.89"/><line class="cls-3" x1="174.7" y1="775.99" x2="174.7" y2="703.19"/><line class="cls-3" x1="196.6" y1="775.99" x2="196.6" y2="687.69"/><line class="cls-3" x1="218.8" y1="775.99" x2="218.8" y2="669.49"/><line class="cls-3" x1="241.5" y1="775.29" x2="241.5" y2="638.69"/><line class="cls-3" x1="1014.5" y1="776.79" x2="1014.5" y2="743.79"/><line class="cls-3" x1="992" y1="776.79" x2="992" y2="739.59"/><line class="cls-3" x1="970.1" y1="776.79" x2="970.1" y2="737.39"/><line class="cls-3" x1="947.9" y1="776.79" x2="947.9" y2="732.59"/><line class="cls-3" x1="903" y1="776.79" x2="903" y2="716.49"/><line class="cls-3" x1="925.2" y1="776.79" x2="925.2" y2="725.59"/><line class="cls-3" x1="880.6" y1="776.79" x2="880.6" y2="703.89"/><line class="cls-3" x1="858.6" y1="776.79" x2="858.6" y2="688.49"/><line class="cls-3" x1="836.5" y1="776.79" x2="836.5" y2="670.19"/><line class="cls-3" x1="813.8" y1="778.19" x2="813.8" y2="640.09"/><line class="cls-3" x1="505.7" y1="776.79" x2="505.7" y2="743.79"/><line class="cls-3" x1="483.3" y1="776.79" x2="483.3" y2="743.79"/><line class="cls-3" x1="461.3" y1="776.79" x2="461.3" y2="737.39"/><line class="cls-3" x1="439.1" y1="776.79" x2="439.1" y2="732.59"/><line class="cls-3" x1="394.3" y1="776.79" x2="394.3" y2="716.49"/><line class="cls-3" x1="416.5" y1="776.79" x2="416.5" y2="725.59"/><line class="cls-3" x1="371.8" y1="776.79" x2="371.8" y2="703.89"/><line class="cls-3" x1="349.9" y1="775.69" x2="349.9" y2="689.49"/><line class="cls-3" x1="327.7" y1="776.79" x2="327.7" y2="670.19"/><line class="cls-3" x1="305" y1="776.79" x2="305" y2="642.89"/><line class="cls-3" x1="549.6" y1="775.99" x2="549.6" y2="743.09"/><line class="cls-3" x1="572" y1="775.99" x2="572" y2="743.09"/><line class="cls-3" x1="594" y1="775.99" x2="594" y2="736.69"/><line class="cls-3" x1="616.2" y1="775.99" x2="616.2" y2="731.89"/><line class="cls-3" x1="661" y1="775.99" x2="661" y2="715.79"/><line class="cls-3" x1="638.8" y1="775.99" x2="638.8" y2="724.89"/><line class="cls-3" x1="683.5" y1="775.99" x2="683.5" y2="703.19"/><line class="cls-3" x1="705.4" y1="776.39" x2="705.4" y2="690.19"/><line class="cls-3" x1="727.6" y1="775.99" x2="727.6" y2="669.49"/><line class="cls-3" x1="750.3" y1="776.79" x2="750.3" y2="640.09"/><line class="cls-3" x1="527" y1="746.59" x2="527" y2="776.79"/><rect class="cls-4" x="847.3" y="301.99" width="112.3" height="651.7"/><rect class="cls-5" x="869.7" y="317.29" width="71" height="636.4"/><rect class="cls-4" x="839.5" y="293.49" width="127.5" height="8.5"/><rect class="cls-4" x="839.5" y="170.99" width="127.5" height="8.5"/><polyline class="cls-4" points="959.3 170.99 959.3 149.69 943.7 149.69 943.7 160.39 862.9 160.39 862.9 149.69 847.3 149.69 847.3 170.99"/><polygon class="cls-4" points="847.3 149.69 849.5 123.49 860.8 123.49 862.9 149.69 847.3 149.69"/><polygon class="cls-4" points="943.7 149.69 945.8 123.49 957.1 123.49 959.3 149.69 943.7 149.69"/><rect class="cls-4" x="852.1" y="117.19" width="5.8" height="6.4"/><polygon class="cls-4" points="852.3 117.19 855.1 107.19 858 117.19 852.3 117.19"/><rect class="cls-4" x="948.4" y="117.19" width="5.8" height="6.4"/><polygon class="cls-4" points="948.6 117.19 951.5 107.19 954.3 117.19 948.6 117.19"/><polygon class="cls-6" points="909.1 30.69 939.4 134.19 944.4 140.79 943.7 149.69 943.7 160.39 862.9 160.39 862.9 149.69 862.2 140.79 867.2 134.19 900 30.69 909.1 30.69"/><path class="cls-7" d="M926.7,26.5" transform="translate(0 -0.01)"/><rect class="cls-6" x="896.5" y="26.49" width="15.6" height="5"/><polygon class="cls-6" points="899.6 26.49 909.3 26.49 909.3 14.09 899.8 14.09 899.6 26.49"/><polygon class="cls-6" points="902.2 14.09 904.7 2.39 907.2 14.09 902.2 14.09"/><rect class="cls-1" x="901.9" y="910.19" width="7" height="27.9"/><rect class="cls-1" x="901.9" y="825.19" width="7" height="27.9"/><rect class="cls-1" x="901.9" y="740.19" width="7" height="27.9"/><rect class="cls-1" x="901.9" y="655.19" width="7" height="27.9"/><rect class="cls-1" x="901.9" y="570.19" width="7" height="27.9"/><rect class="cls-1" x="901.9" y="485.19" width="7" height="27.9"/><rect class="cls-1" x="901.9" y="400.09" width="7" height="27.9"/><text class="cls-8" transform="translate(900.57 327.64)">XII</text><text class="cls-8" transform="matrix(0.87, 0.5, -0.5, 0.87, 918.09, 331.15)">I</text><text class="cls-8" transform="matrix(0.5, 0.87, -0.87, 0.5, 925.77, 338.27)">II</text><text class="cls-8" transform="translate(929.98 346.43) rotate(90)">III</text><line class="cls-9" x1="905.8" y1="320.09" x2="905.8" y2="384.59"/><text class="cls-10" transform="matrix(-0.87, -0.5, 0.5, -0.87, 898.18, 374.79)">V</text><text class="cls-8" transform="matrix(-0.87, -0.5, 0.5, -0.87, 892.86, 371.72)">I</text><text class="cls-8" transform="matrix(-0.87, -0.5, 0.5, -0.87, 890.41, 370.31)">I</text><text class="cls-8" transform="matrix(-0.5, 0.87, -0.87, -0.5, 928.64, 359.21)">I</text><text class="cls-10" transform="matrix(-0.5, 0.87, -0.87, -0.5, 927.22, 361.66)">V</text><text class="cls-10" transform="matrix(-0.87, 0.5, -0.5, -0.87, 921.06, 370.35)">V</text><text class="cls-8" transform="translate(910.84 376.37) rotate(180)">VI</text><text class="cls-8" transform="matrix(-0.32, -0.56, 0.87, -0.5, 887.04, 367.25)">VIII</text><text class="cls-8" transform="translate(881.79 355.4) rotate(-90)">IX</text><text class="cls-11" transform="matrix(0.36, -0.93, 0.93, 0.36, 883.5, 341.96)">X</text><text class="cls-8" transform="matrix(0.87, -0.5, 0.5, 0.87, 888.97, 333.27)">XI</text><polyline class="cls-12" points="900 346.59 928.1 362.79 901.6 344.79"/><circle class="cls-12" cx="900.42" cy="345.21" r="1.6" transform="translate(-27.63 83.18) rotate(-5.21)"/><rect class="cls-12" x="910.27" y="341.82" width="2.1" height="25.9" transform="translate(58.33 833.06) rotate(-50.55)"/><path class="cls-13" d="M906.5,352.7a2.66,2.66,0,1,1,2.9-2.4,2.58,2.58,0,0,1-2.4,2.4Z" transform="translate(0 -0.01)"/><path class="cls-13" d="M906.5,347.9h0a2.18,2.18,0,0,1,.4,4.3h-.4a2.18,2.18,0,0,1-.4-4.3h.4m0-1a3.15,3.15,0,1,0,3.1,3.2,1.27,1.27,0,0,0-.1-.6A3,3,0,0,0,906.5,346.9Z" transform="translate(0 -0.01)"/><circle class="cls-12" cx="900.71" cy="345.99" r="1.6" transform="translate(-48.12 170.76) rotate(-10.55)"/><path class="cls-13" d="M925.3,365.9c-1.9-8-6-4.6-6-4.6s-2.8,5.1,5.8,4.9Z" transform="translate(0 -0.01)"/><path class="cls-14" d="M925.3,365.9c-1.9-8-6-4.6-6-4.6s-2.8,5.1,5.8,4.9Z" transform="translate(0 -0.01)"/><path class="cls-4" d="M847.3,179.5v114H959.2v-114Zm96.2,113.9h-81v-98h81Z" transform="translate(0 -0.01)"/><path class="cls-5" d="M863.2,190.5v102h81.5v-102Zm26.6,96.7H870.3V216c0-22.2,19.5-22.2,19.5,0Zm24,0H894.3V216c0-22.2,19.5-22.2,19.5,0Zm24.8,0H919.1V216c0-22.2,19.5-22.2,19.5,0Z" transform="translate(0 -0.01)"/></svg>