<svg id="Layer_1" data-name="Layer 1" xmlns="http://www.w3.org/2000/svg" viewBox="0 0 872 378"><defs><style>.cls-1{fill:#ea526f;stroke:#ea526f;}.cls-1,.cls-2,.cls-3,.cls-4,.cls-5,.cls-6,.cls-7,.cls-8{stroke-miterlimit:10;}.cls-2{fill:#fff;}.cls-2,.cls-3{stroke:#000;}.cls-3{fill:none;}.cls-4{fill:#53556b;stroke:#53556b;}.cls-5{fill:#c7a572;stroke:#c7a572;}.cls-6{fill:#f3c98b;stroke:#f3c98b;}.cls-7{fill:#f1e9da;stroke:#f1e9da;}.cls-8{fill:#b33951;stroke:#b33951;}</style></defs><title>coloredTAM2</title><path class="cls-1" d="M509.5,225H.5V377.5H147V344.1c0-31.2,45.5-31.2,45.5,0v33.4h73V333.8c0-40.7,59-40.7,59,0v43.7h73V320.7c0-52.8,76.5-52.8,76.5,0v56.8h73V333.8c0-40.7,59-40.7,59,0v43.7h73V344.1c0-31.2,45.5-31.2,45.5,0v33.4h147V225Z"/><path class="cls-2" d="M39.5,178.5"/><path class="cls-3" d="M643.5,137.5"/><polyline class="cls-4" points="0.5 225.5 0.5 204.5 391.7 204.5 871.5 204.5 871.5 225.5"/><path class="cls-3" d="M230.5,137.5"/><path class="cls-3" d="M219.5,125.5"/><path class="cls-3" d="M255.3,112.4"/><path class="cls-3" d="M233.5,137.5"/><path class="cls-3" d="M643.5,137.5"/><path class="cls-4" d="M483.5,137.5h-253v67h11.1l-.1-40c0-13.5,27.5-13.5,27.5,0v39.6l-27.4.4h38l-.1-40c0-13.5,27.5-13.5,27.5,0v39.6l-27.4.4h38l-.1-40c0-13.5,27.5-13.5,27.5,0v39.6l-27.4.4h38l-.1-40c0-13.5,27.5-13.5,27.5,0v39.6l-27.4.4h37.9v-38c0-18.7,90-18.7,90,0v38h10.1l-.1-40c0-13.5,27.5-13.5,27.5,0v39.6l-27.4.4h38l-.1-40c0-13.5,27.5-13.5,27.5,0v39.6l-27.4.4h38l-.1-40c0-13.5,27.5-13.5,27.5,0v39.6l-27.4.4h38l-.1-40c0-13.5,27.5-13.5,27.5,0v39.6l-27.4.4h38.6v-67Z"/><polygon class="cls-5" points="671 124.5 205 124.5 230.5 137.5 646.5 137.5 671 124.5"/><path class="cls-3" d="M670.5,124.5"/><polygon class="cls-5" points="646.5 75.5 230.5 78.5 241.5 91.5 635.5 88.5 646.5 75.5"/><path class="cls-6" d="M646.5,75.5s-40-4-39-57l-339,2c1,51-38,58-38,58"/><polyline class="cls-7" points="268.5 20.5 268.5 0.5 275.5 0.5 275.5 6.5 282.5 6.5 282.5 0.5 289.5 0.5 289.5 20.4"/><polyline class="cls-7" points="607.5 18.5 607.5 0.5 600.5 0.5 600.5 7.5 593.5 7.5 593.5 0.5 586.5 0.5 586.5 18.5"/><rect class="cls-8" x="548.5" y="235.5" width="243" height="23"/><rect class="cls-8" x="84.5" y="235.5" width="243" height="23"/><polygon class="cls-7" points="635.5 88.5 241.5 91.5 241.5 103.5 635.5 100.5 635.5 88.5"/><path class="cls-6" d="M204.5,124.5h466s-39-7-35-24l-394,3C241.2,118.8,223.8,122.1,204.5,124.5Z"/><rect class="cls-7" x="410.5" y="210.9" width="51.4" height="66.6"/></svg>