<svg id="Layer_1" data-name="Layer 1" xmlns="http://www.w3.org/2000/svg" viewBox="0 0 1467.08 485.6"><defs><style>.cls-1{fill:#007bb6;stroke:#edf6fb;stroke-miterlimit:10;stroke-width:15px;}.cls-2,.cls-3{fill:#edf6fb;}.cls-3{font-size:107.3px;font-family:Poppins-Regular, Poppins;}</style></defs><title>connect</title><path class="cls-1" d="M1052.28,559.47h386.08c19.14,0,34.73-15.18,34.73-33.88V123.85c0-18.7-15.59-33.85-34.73-33.85H1052.28" transform="translate(-13.5 -81.93)"/><polyline class="cls-1" points="1038.78 7.5 7.5 7.5 7.5 478.1 1038.76 478.1"/><rect class="cls-2" x="1069.66" y="172.61" width="66.72" height="214.46"/><path class="cls-2" d="M1116.54,225.24a38.65,38.65,0,1,1,38.63-38.66A38.64,38.64,0,0,1,1116.54,225.24Z" transform="translate(-13.5 -81.93)"/><path class="cls-2" d="M1399.52,469h-66.65V364.71c0-24.87-.43-56.86-34.63-56.86-34.68,0-40,27.11-40,55.08V469H1191.7V254.54h63.89v29.32h.91c8.89-16.86,30.64-34.64,63.06-34.64,67.49,0,80,44.41,80,102.17Z" transform="translate(-13.5 -81.93)"/><text class="cls-3" transform="translate(78.5 298.93)">Connect with me</text></svg>