<svg id="Layer_1" data-name="Layer 1" xmlns="http://www.w3.org/2000/svg" viewBox="0 0 560.78 484.47"><defs><style>.cls-1{fill:#edf6fb;}.cls-2{fill:none;stroke:#edf6fb;stroke-miterlimit:10;stroke-width:15px;}</style></defs><title>fb</title><g id="f"><path class="cls-1" d="M531.76,560V379.83h60.48l9.05-70.22H531.76V264.78c0-20.33,5.65-34.18,34.8-34.18l37.18,0v-62.8c-6.43-.85-28.5-2.77-54.18-2.77-53.61,0-90.31,32.72-90.31,92.82v51.78H398.62v70.22h60.63V560Z" transform="translate(-119.8 -82.5)"/></g><path class="cls-2" d="M252.28,559.47H638.35c19.14,0,34.73-15.18,34.73-33.88V123.85c0-18.7-15.59-33.85-34.73-33.85H252.28" transform="translate(-119.8 -82.5)"/><polyline class="cls-2" points="132.47 7.5 7.5 7.5 7.5 476.97 132.47 476.97"/></svg>