<svg id="Layer_1" data-name="Layer 1" xmlns="http://www.w3.org/2000/svg" viewBox="0 0 629.37 317.38"><defs><style>.cls-1{fill:none;}.cls-1,.cls-3,.cls-4,.cls-6{stroke:#f1e9da;}.cls-1,.cls-2,.cls-3,.cls-4,.cls-5,.cls-6{stroke-miterlimit:10;}.cls-1,.cls-5,.cls-6{stroke-width:7px;}.cls-2,.cls-4,.cls-5{fill:#fff;}.cls-2,.cls-5{stroke:#000;}.cls-3,.cls-6{fill:#f1e9da;}</style></defs><title>filledden</title><polyline class="cls-1" points="3.05 313.88 63.05 207.88 91.05 219.88 141.05 111.88 175.05 127.88 231.05 25.88 287.05 71.88 329.05 5.88 409.05 99.88 459.05 61.88 489.05 119.88 505.05 96.88 566.05 231.88 594.05 216.88 626.05 313.88"/><path class="cls-2" d="M596.5,327.5" transform="translate(-368.45 -225.62)"/><polyline class="cls-3" points="248.05 101.88 248.05 91.88 233.05 91.88 228.05 91.88 228.05 101.88"/><path class="cls-2" d="M601.5,317.5" transform="translate(-368.45 -225.62)"/><line class="cls-4" x1="233.05" y1="82.88" x2="233.05" y2="91.88"/><line class="cls-3" x1="243.05" y1="91.88" x2="243.05" y2="82.88"/><path class="cls-3" d="M718.5,539.5v-203s2-46-36-51v28c-35,3-34,35-34,35v191" transform="translate(-368.45 -225.62)"/><polyline class="cls-3" points="390.05 313.88 390.05 207.88 380.55 207.88 350.05 207.88 350.05 313.88 390.05 313.88 390.05 207.88 425.05 234.88 441.05 311.05"/><path class="cls-3" d="M809.5,539.5v-101l3,9,4-2c-15-53-68-46-68-46v5h10v44" transform="translate(-368.45 -225.62)"/><polyline class="cls-3" points="457.05 313.88 457.05 149.88 505.05 149.88 505.05 313.88"/><path class="cls-5" d="M482.5,395.82" transform="translate(-368.45 -225.62)"/><polyline class="cls-3" points="114.05 313.88 114.05 215.88 182.05 215.88 182.05 313.88 188.05 313.88 188.05 159.88 193.05 159.88 193.05 149.88 223.05 149.88 223.05 159.88 228.05 159.88 228.05 313.88"/><rect class="cls-3" x="213.05" y="101.88" width="50" height="212"/><line class="cls-1" x1="3.05" y1="313.88" x2="626.05" y2="313.88"/><polygon class="cls-6" points="254.05 159.88 293.05 159.88 293.05 313.88 252.05 313.88 254.05 159.88"/><polygon class="cls-3" points="395.05 207.88 395.05 225.88 382.05 225.88 382.55 207.88 395.05 207.88"/></svg>