<svg id="Layer_1" data-name="Layer 1" xmlns="http://www.w3.org/2000/svg" viewBox="0 0 631.05 329.88"><defs><style>.cls-1,.cls-7,.cls-8{fill:none;}.cls-2,.cls-5{fill:#f1e9da;}.cls-3,.cls-4,.cls-6{fill:#fff;}.cls-3,.cls-6{stroke:#000;}.cls-3,.cls-4,.cls-5,.cls-6,.cls-7,.cls-8{stroke-miterlimit:10;}.cls-4,.cls-5,.cls-7,.cls-8{stroke:#f1e9da;}.cls-6,.cls-8{stroke-width:7px;}</style></defs><title>filledden3</title><polyline class="cls-1" points="3.05 316.88 63.05 210.88 91.05 223.88 141.05 115.88 175.05 131.88 230.05 28.88 288.05 74.88 328.05 8.88 406.05 103.88 459.05 62.88 488.05 123.88 505.05 99.88 566.05 234.88 594.05 219.88 631.05 329.88"/><polyline class="cls-2" points="280.05 159.88 263.05 159.88 263.05 313.88 280.05 313.88"/><path class="cls-3" d="M596.5,327.5" transform="translate(-368.45 -225.62)"/><path class="cls-3" d="M601.5,317.5" transform="translate(-368.45 -225.62)"/><line class="cls-4" x1="233.05" y1="82.88" x2="233.05" y2="91.88"/><line class="cls-4" x1="243.05" y1="91.88" x2="243.05" y2="82.88"/><path class="cls-5" d="M758.5,433.5v-29h-10v-5s53-7,68,46l-4,2-3-9v101h-51" transform="translate(-368.45 -225.62)"/><polyline class="cls-5" points="457.05 313.88 457.05 149.88 505.05 149.88 505.05 313.88"/><path class="cls-6" d="M482.5,395.82" transform="translate(-368.45 -225.62)"/><polyline class="cls-5" points="188.05 313.88 188.05 159.88 193.05 159.88 193.05 149.88 223.05 149.88 223.05 159.88 228.05 159.88 228.05 313.88"/><polyline class="cls-5" points="113.05 313.88 113.05 215.88 181.05 215.88 181.05 313.88"/><path class="cls-5" d="M718.5,539.5h-70v-191s-1-32,34-35v-28c38,5,36,51,36,51v203h40v-106h-40Z" transform="translate(-368.45 -225.62)"/><rect class="cls-5" x="350.05" y="207.88" width="40" height="106"/><rect class="cls-5" x="288.05" y="128.88" width="8" height="8"/><rect class="cls-5" x="312.05" y="128.88" width="8" height="8"/><rect class="cls-5" x="300.05" y="128.88" width="8" height="8"/><rect class="cls-5" x="324.05" y="128.88" width="8" height="8"/><rect class="cls-5" x="336.05" y="128.88" width="8" height="8"/><rect class="cls-5" x="288.05" y="140.88" width="8" height="8"/><rect class="cls-5" x="312.05" y="140.88" width="8" height="8"/><rect class="cls-5" x="300.05" y="140.88" width="8" height="8"/><rect class="cls-5" x="324.05" y="140.88" width="8" height="8"/><rect class="cls-5" x="336.05" y="140.88" width="8" height="8"/><rect class="cls-5" x="288.05" y="152.88" width="8" height="8"/><rect class="cls-5" x="312.05" y="152.88" width="8" height="8"/><rect class="cls-5" x="300.05" y="152.88" width="8" height="8"/><rect class="cls-5" x="324.05" y="152.88" width="8" height="8"/><rect class="cls-5" x="336.05" y="152.88" width="8" height="8"/><rect class="cls-5" x="288.05" y="164.88" width="8" height="8"/><rect class="cls-5" x="312.05" y="164.88" width="8" height="8"/><rect class="cls-5" x="300.05" y="164.88" width="8" height="8"/><rect class="cls-5" x="324.05" y="164.88" width="8" height="8"/><rect class="cls-5" x="336.05" y="164.88" width="8" height="8"/><rect class="cls-5" x="288.05" y="176.88" width="8" height="8"/><rect class="cls-5" x="312.05" y="176.88" width="8" height="8"/><rect class="cls-5" x="300.05" y="176.88" width="8" height="8"/><rect class="cls-5" x="324.05" y="176.88" width="8" height="8"/><rect class="cls-5" x="336.05" y="176.88" width="8" height="8"/><rect class="cls-5" x="288.05" y="188.88" width="8" height="8"/><rect class="cls-5" x="312.05" y="188.88" width="8" height="8"/><rect class="cls-5" x="300.05" y="188.88" width="8" height="8"/><rect class="cls-5" x="324.05" y="188.88" width="8" height="8"/><rect class="cls-5" x="336.05" y="188.88" width="8" height="8"/><rect class="cls-5" x="288.05" y="200.88" width="8" height="8"/><rect class="cls-5" x="312.05" y="200.88" width="8" height="8"/><rect class="cls-5" x="300.05" y="200.88" width="8" height="8"/><rect class="cls-5" x="324.05" y="200.88" width="8" height="8"/><rect class="cls-5" x="336.05" y="200.88" width="8" height="8"/><rect class="cls-5" x="288.05" y="212.88" width="8" height="8"/><rect class="cls-5" x="312.05" y="212.88" width="8" height="8"/><rect class="cls-5" x="300.05" y="212.88" width="8" height="8"/><rect class="cls-5" x="324.05" y="212.88" width="8" height="8"/><rect class="cls-5" x="336.05" y="212.88" width="8" height="8"/><rect class="cls-5" x="288.05" y="224.88" width="8" height="8"/><rect class="cls-5" x="312.05" y="224.88" width="8" height="8"/><rect class="cls-5" x="300.05" y="224.88" width="8" height="8"/><rect class="cls-5" x="324.05" y="224.88" width="8" height="8"/><rect class="cls-5" x="336.05" y="224.88" width="8" height="8"/><rect class="cls-5" x="288.05" y="236.88" width="8" height="8"/><rect class="cls-5" x="312.05" y="236.88" width="8" height="8"/><rect class="cls-5" x="300.05" y="236.88" width="8" height="8"/><rect class="cls-5" x="324.05" y="236.88" width="8" height="8"/><rect class="cls-5" x="336.05" y="236.88" width="8" height="8"/><rect class="cls-5" x="288.05" y="248.88" width="8" height="8"/><rect class="cls-5" x="312.05" y="248.88" width="8" height="8"/><rect class="cls-5" x="300.05" y="248.88" width="8" height="8"/><rect class="cls-5" x="324.05" y="248.88" width="8" height="8"/><rect class="cls-5" x="336.05" y="248.88" width="8" height="8"/><rect class="cls-5" x="288.05" y="260.88" width="8" height="8"/><rect class="cls-5" x="312.05" y="260.88" width="8" height="8"/><rect class="cls-5" x="300.05" y="260.88" width="8" height="8"/><rect class="cls-5" x="324.05" y="260.88" width="8" height="8"/><rect class="cls-5" x="336.05" y="260.88" width="8" height="8"/><rect class="cls-5" x="288.05" y="272.88" width="8" height="8"/><rect class="cls-5" x="312.05" y="272.88" width="8" height="8"/><rect class="cls-5" x="300.05" y="272.88" width="8" height="8"/><rect class="cls-5" x="324.05" y="272.88" width="8" height="8"/><rect class="cls-5" x="336.05" y="272.88" width="8" height="8"/><rect class="cls-5" x="288.05" y="284.88" width="8" height="8"/><rect class="cls-5" x="312.05" y="284.88" width="8" height="8"/><rect class="cls-5" x="300.05" y="284.88" width="8" height="8"/><rect class="cls-5" x="324.05" y="284.88" width="8" height="8"/><rect class="cls-5" x="336.05" y="284.88" width="8" height="8"/><rect class="cls-5" x="288.05" y="296.88" width="8" height="8"/><rect class="cls-5" x="312.05" y="296.88" width="8" height="8"/><rect class="cls-5" x="300.05" y="296.88" width="8" height="8"/><rect class="cls-5" x="324.05" y="296.88" width="8" height="8"/><rect class="cls-5" x="336.05" y="296.88" width="8" height="8"/><rect class="cls-5" x="288.05" y="116.88" width="8" height="8"/><rect class="cls-5" x="312.05" y="116.88" width="8" height="8"/><rect class="cls-5" x="300.05" y="116.88" width="8" height="8"/><rect class="cls-5" x="324.05" y="116.88" width="8" height="8"/><rect class="cls-5" x="336.05" y="116.88" width="8" height="8"/><rect class="cls-5" x="288.05" y="104.88" width="8" height="8"/><rect class="cls-5" x="312.05" y="104.88" width="8" height="8"/><rect class="cls-5" x="300.05" y="104.88" width="8" height="8"/><rect class="cls-5" x="324.05" y="104.88" width="8" height="8"/><rect class="cls-5" x="336.05" y="104.88" width="8" height="8"/><rect class="cls-5" x="312.05" y="92.88" width="8" height="8"/><rect class="cls-5" x="324.05" y="92.88" width="8" height="8"/><rect class="cls-5" x="336.05" y="92.88" width="8" height="8"/><rect class="cls-5" x="355.05" y="220.88" width="6" height="8"/><rect class="cls-5" x="355.05" y="228.88" width="6" height="8"/><rect class="cls-5" x="355.05" y="236.88" width="6" height="8"/><rect class="cls-5" x="355.05" y="244.88" width="6" height="8"/><rect class="cls-5" x="355.05" y="252.88" width="6" height="8"/><rect class="cls-5" x="367.05" y="220.88" width="6" height="8"/><rect class="cls-5" x="367.05" y="228.88" width="6" height="8"/><rect class="cls-5" x="367.05" y="236.88" width="6" height="8"/><rect class="cls-5" x="367.05" y="244.88" width="6" height="8"/><rect class="cls-5" x="367.05" y="252.88" width="6" height="8"/><rect class="cls-5" x="379.05" y="220.88" width="6" height="8"/><rect class="cls-5" x="379.05" y="228.88" width="6" height="8"/><rect class="cls-5" x="379.05" y="236.88" width="6" height="8"/><rect class="cls-5" x="379.05" y="244.88" width="6" height="8"/><rect class="cls-5" x="379.05" y="252.88" width="6" height="8"/><rect class="cls-5" x="118.05" y="228.25" width="59" height="9.25"/><rect class="cls-5" x="118.05" y="241.25" width="59" height="9.25"/><rect class="cls-5" x="118.05" y="254.25" width="59" height="9.25"/><rect class="cls-5" x="118.05" y="267.25" width="59" height="9.25"/><rect class="cls-5" x="118.05" y="280.25" width="59" height="9.25"/><rect class="cls-5" x="118.05" y="293.25" width="59" height="9.25"/><polyline class="cls-5" points="248.05 101.88 248.05 91.88 233.05 91.88 228.05 91.88 228.05 101.88"/><rect class="cls-5" x="213.05" y="101.88" width="50" height="212"/><line class="cls-7" x1="222.05" y1="101.38" x2="222.05" y2="313.38"/><line class="cls-7" x1="230.05" y1="101.38" x2="230.05" y2="313.38"/><line class="cls-7" x1="238.05" y1="101.38" x2="238.05" y2="313.38"/><polyline class="cls-7" points="246.05 101.38 246.05 216.88 246.05 313.38"/><polyline class="cls-7" points="255.05 101.38 255.05 216.88 255.05 313.38"/><rect class="cls-5" x="400.05" y="216.88" width="12" height="12"/><rect class="cls-5" x="400.05" y="232.88" width="12" height="12"/><rect class="cls-5" x="421.05" y="248.88" width="12" height="12"/><rect class="cls-5" x="400.05" y="264.88" width="12" height="12"/><rect class="cls-5" x="400.05" y="280.88" width="12" height="12"/><rect class="cls-5" x="421.05" y="232.88" width="12" height="12"/><rect class="cls-5" x="400.05" y="248.88" width="12" height="12"/><rect class="cls-5" x="421.05" y="264.88" width="12" height="12"/><rect class="cls-5" x="421.05" y="280.88" width="12" height="12"/><rect class="cls-5" x="459.05" y="167.88" width="7" height="31"/><rect class="cls-5" x="471.05" y="167.88" width="7" height="31"/><rect class="cls-5" x="483.05" y="167.88" width="7" height="31"/><rect class="cls-5" x="496.05" y="167.88" width="7" height="31"/><rect class="cls-5" x="459.05" y="202.88" width="7" height="31"/><rect class="cls-5" x="471.05" y="202.88" width="7" height="31"/><rect class="cls-5" x="483.05" y="202.88" width="7" height="31"/><rect class="cls-5" x="496.05" y="202.88" width="7" height="31"/><rect class="cls-5" x="459.05" y="237.88" width="7" height="31"/><rect class="cls-5" x="471.05" y="237.88" width="7" height="31"/><rect class="cls-5" x="483.05" y="237.88" width="7" height="31"/><rect class="cls-5" x="496.05" y="237.88" width="7" height="31"/><rect class="cls-5" x="459.05" y="272.88" width="7" height="31"/><rect class="cls-5" x="471.05" y="272.88" width="7" height="31"/><rect class="cls-5" x="483.05" y="272.88" width="7" height="31"/><rect class="cls-5" x="496.05" y="272.88" width="7" height="31"/><polyline class="cls-8" points="3.05 313.88 63.05 207.88 91.05 219.88 141.05 111.88 175.05 127.88 231.05 25.88 287.05 71.88 329.05 5.88 406.49 96.88 409.05 99.88 459.05 61.88 489.05 119.88 505.05 96.88 566.05 231.88 594.05 216.88 626.05 313.88"/></svg>