<svg id="Layer_1" data-name="Layer 1" xmlns="http://www.w3.org/2000/svg" xmlns:xlink="http://www.w3.org/1999/xlink" viewBox="0 0 1467.78 484.47"><defs><style>.cls-1{fill:url(#radial-gradient);}.cls-2{fill:none;stroke:#edf6fb;stroke-miterlimit:10;stroke-width:15px;}.cls-3,.cls-4{fill:#edf6fb;}.cls-4{font-size:156.29px;font-family:Poppins-Regular, Poppins;}</style><radialGradient id="radial-gradient" cx="1200.5" cy="325.23" r="254.59" gradientTransform="translate(-2459.39 -630.76) scale(2.66 2.68)" gradientUnits="userSpaceOnUse"><stop offset="0.04" stop-color="#f9ed32"/><stop offset="0.47" stop-color="#ee2a7b"/><stop offset="1" stop-color="#4f1eba"/></radialGradient></defs><title>followme</title><polygon class="cls-1" points="8 7.5 1367.39 7.5 1412.78 7.5 1449.13 25.49 1460.5 41.5 1459.91 97 1459.91 407.98 1450.76 457.79 1416.02 476.97 8 476.5 8 7.5"/><path class="cls-2" d="M1052.48,560h386.07c19.14,0,34.73-15.18,34.73-33.88V124.35c0-18.7-15.59-33.85-34.73-33.85H1052.48" transform="translate(-13 -83)"/><polygon class="cls-2" points="7.5 476.5 7.5 7.5 1038.97 7.5 7.5 7.5 7.5 476.97 1038.97 476.97 7.5 476.5"/><path class="cls-3" d="M1242.54,185.35c43.38,0,48.52.17,65.65.95,15.84.72,24.44,3.37,30.17,5.59a53.8,53.8,0,0,1,30.83,30.83c2.22,5.72,4.87,14.33,5.59,30.17.78,17.13.95,22.27.95,65.65s-.17,48.52-.95,65.65c-.72,15.84-3.37,24.44-5.59,30.17a53.8,53.8,0,0,1-30.83,30.83c-5.72,2.22-14.33,4.87-30.17,5.59-17.13.78-22.27.95-65.65.95s-48.52-.17-65.65-.95c-15.84-.72-24.44-3.37-30.17-5.59a53.8,53.8,0,0,1-30.83-30.83c-2.22-5.72-4.87-14.33-5.59-30.17-.78-17.13-.95-22.27-.95-65.65s.17-48.52.95-65.65c.72-15.84,3.37-24.44,5.59-30.17a53.8,53.8,0,0,1,30.83-30.83c5.72-2.22,14.33-4.87,30.17-5.59,17.13-.78,22.27-.95,65.65-.95m0-29.27c-44.12,0-49.65.19-67,1s-29.1,3.54-39.44,7.55a83.07,83.07,0,0,0-47.51,47.51c-4,10.33-6.76,22.14-7.55,39.44s-1,22.86-1,67,.19,49.65,1,67,3.54,29.1,7.55,39.44a83.07,83.07,0,0,0,47.51,47.51c10.33,4,22.14,6.76,39.44,7.55s22.86,1,67,1,49.65-.19,67-1,29.1-3.54,39.44-7.55A83.07,83.07,0,0,0,1396.47,425c4-10.33,6.76-22.14,7.55-39.44s1-22.86,1-67-.19-49.65-1-67-3.54-29.1-7.55-39.44A83.07,83.07,0,0,0,1349,164.61c-10.33-4-22.14-6.76-39.44-7.55s-22.86-1-67-1Z" transform="translate(-13 -83)"/><path class="cls-3" d="M1242.54,235.11A83.43,83.43,0,1,0,1326,318.54,83.43,83.43,0,0,0,1242.54,235.11Zm0,137.58a54.15,54.15,0,1,1,54.15-54.15A54.15,54.15,0,0,1,1242.54,372.69Z" transform="translate(-13 -83)"/><circle class="cls-3" cx="1316.26" cy="148.82" r="19.5"/><text class="cls-4" transform="translate(186 293.82)">Follow me</text></svg>