<svg id="Layer_1" data-name="Layer 1" xmlns="http://www.w3.org/2000/svg" xmlns:xlink="http://www.w3.org/1999/xlink" viewBox="0 0 560.78 484.47"><defs><style>.cls-1{fill:url(#linear-gradient);}.cls-2{fill:none;stroke:#edf6fb;stroke-miterlimit:10;stroke-width:15px;}.cls-3{fill:#edf6fb;}</style><linearGradient id="linear-gradient" x1="7.5" y1="242.23" x2="553.5" y2="242.23" gradientUnits="userSpaceOnUse"><stop offset="0" stop-color="#f9ed32"/><stop offset="0" stop-color="#ee2a7b"/><stop offset="1" stop-color="#4f1eba"/></linearGradient></defs><title>instat</title><polygon class="cls-1" points="7.5 7.5 518.5 7.5 535.56 7.5 549.23 25.49 553.5 41.5 553.28 97 553.28 407.98 549.84 457.79 536.78 476.97 7.5 476.5 7.5 7.5"/><path class="cls-2" d="M252.48,560H638.55c19.14,0,34.73-15.18,34.73-33.88V124.35c0-18.7-15.59-33.85-34.73-33.85H252.48" transform="translate(-120 -83)"/><polygon class="cls-2" points="7.5 476.5 7.5 7.5 132.47 7.5 7.5 7.5 7.5 476.97 132.47 476.97 7.5 476.5"/><path class="cls-3" d="M442.54,185.35c43.38,0,48.52.17,65.65.95,15.84.72,24.44,3.37,30.17,5.59a53.8,53.8,0,0,1,30.83,30.83c2.22,5.72,4.87,14.33,5.59,30.17.78,17.13.95,22.27.95,65.65s-.17,48.52-.95,65.65c-.72,15.84-3.37,24.44-5.59,30.17a53.8,53.8,0,0,1-30.83,30.83c-5.72,2.22-14.33,4.87-30.17,5.59-17.13.78-22.27.95-65.65.95s-48.52-.17-65.65-.95c-15.84-.72-24.44-3.37-30.17-5.59a53.8,53.8,0,0,1-30.83-30.83c-2.22-5.72-4.87-14.33-5.59-30.17-.78-17.13-.95-22.27-.95-65.65s.17-48.52.95-65.65c.72-15.84,3.37-24.44,5.59-30.17a53.8,53.8,0,0,1,30.83-30.83c5.72-2.22,14.33-4.87,30.17-5.59,17.13-.78,22.27-.95,65.65-.95m0-29.27c-44.12,0-49.65.19-67,1s-29.1,3.54-39.44,7.55a83.07,83.07,0,0,0-47.51,47.51c-4,10.33-6.76,22.14-7.55,39.44s-1,22.86-1,67,.19,49.65,1,67,3.54,29.1,7.55,39.44a83.07,83.07,0,0,0,47.51,47.51c10.33,4,22.14,6.76,39.44,7.55s22.86,1,67,1,49.65-.19,67-1,29.1-3.54,39.44-7.55A83.07,83.07,0,0,0,596.47,425c4-10.33,6.76-22.14,7.55-39.44s1-22.86,1-67-.19-49.65-1-67-3.54-29.1-7.55-39.44A83.07,83.07,0,0,0,549,164.61c-10.33-4-22.14-6.76-39.44-7.55s-22.86-1-67-1Z" transform="translate(-120 -83)"/><path class="cls-3" d="M442.54,235.11A83.43,83.43,0,1,0,526,318.54,83.43,83.43,0,0,0,442.54,235.11Zm0,137.58a54.15,54.15,0,1,1,54.15-54.15A54.15,54.15,0,0,1,442.54,372.69Z" transform="translate(-120 -83)"/><circle class="cls-3" cx="409.26" cy="148.82" r="19.5"/></svg>