<?xml version="1.0" encoding="utf-8"?>
<!-- Generator: Adobe Illustrator 21.1.0, SVG Export Plug-In . SVG Version: 6.00 Build 0)  -->
<svg version="1.1" id="Layer_1" xmlns="http://www.w3.org/2000/svg" xmlns:xlink="http://www.w3.org/1999/xlink" x="0px" y="0px"
	 viewBox="0 0 42.3 36" style="enable-background:new 0 0 42.3 36;" xml:space="preserve">
<style type="text/css">
	.st0{fill:#FFFFFF;}
	.st1{fill:#007BB6;}
</style>
<circle class="st0" cx="14.7" cy="8.1" r="3.1"/>
<rect x="12" y="13.5" class="st0" width="5.3" height="17.2"/>
<path class="st0" d="M30.9,13.1c-2.6,0-4.3,1.4-5.1,2.8h-0.1v-2.3h-5.1v17.2H26v-8.5c0-2.2,0.4-4.4,3.2-4.4c2.7,0,2.8,2.6,2.8,4.6
	v8.4h5.3v-9.4C37.3,16.6,36.4,13.1,30.9,13.1z"/>
<g>
	<path class="st1" d="M38.6,1.5H12.9h-1.5l0,33.1h27.2c1.3,0,2.4-1.1,2.4-2.4V3.8C41,2.5,39.9,1.5,38.6,1.5z M17.8,29.6h-4.9V13.9
		h4.9V29.6z M15.3,11.7c-1.6,0-2.8-1.3-2.8-2.8c0-1.6,1.3-2.8,2.8-2.8c1.6,0,2.8,1.3,2.8,2.8C18.2,10.4,16.9,11.7,15.3,11.7z
		 M36.2,29.6h-4.9V22c0-1.8,0-4.2-2.5-4.2c-2.6,0-2.9,2-2.9,4.1v7.8h-4.9V13.9h4.7V16h0.1c0.7-1.2,2.3-2.6,4.6-2.6
		c5,0,5.9,3.3,5.9,7.5V29.6z"/>
	<polyline class="st1" points="11.4,1.5 2.6,1.5 2.6,34.5 11.4,34.5 	"/>
</g>
</svg>
