<svg id="Layer_1" data-name="Layer 1" xmlns="http://www.w3.org/2000/svg" viewBox="0 0 560.78 484.47"><defs><style>.cls-1{fill:#007bb6;stroke:#edf6fb;stroke-miterlimit:10;stroke-width:15px;}.cls-2{fill:#edf6fb;}</style></defs><title>lit</title><path class="cls-1" d="M252.28,559.47H638.35c19.14,0,34.73-15.18,34.73-33.88V123.85c0-18.7-15.59-33.85-34.73-33.85H252.28" transform="translate(-119.8 -82.5)"/><polyline class="cls-1" points="132.47 7.5 7.5 7.5 7.5 476.97 132.47 476.97"/><rect class="cls-2" x="163.36" y="172.04" width="66.72" height="214.46"/><path class="cls-2" d="M316.54,225.24a38.65,38.65,0,1,1,38.63-38.66A38.64,38.64,0,0,1,316.54,225.24Z" transform="translate(-119.8 -82.5)"/><path class="cls-2" d="M599.53,469H532.88V364.71c0-24.87-.43-56.86-34.63-56.86-34.68,0-40,27.11-40,55.08V469H391.7V254.54h63.89v29.32h.91c8.89-16.86,30.64-34.64,63.06-34.64,67.49,0,80,44.41,80,102.17Z" transform="translate(-119.8 -82.5)"/></svg>