<?xml version="1.0" encoding="utf-8"?>
<!-- Generator: Adobe Illustrator 21.1.0, SVG Export Plug-In . SVG Version: 6.00 Build 0)  -->
<svg version="1.1" id="Layer_1" xmlns="http://www.w3.org/2000/svg" xmlns:xlink="http://www.w3.org/1999/xlink" x="0px" y="0px"
	 viewBox="0 0 1366 768" style="enable-background:new 0 0 1366 768;" xml:space="preserve">
<style type="text/css">
	.st0{fill:#F1E9DA;}
</style>
<g>
	<path class="st0" d="M237.2,416.7h-42.9v38.2h-11v-84.3h11v37h42.9v-37h11v84.3h-11V416.7z"/>
	<path class="st0" d="M294.2,387.6c12.3,0,20.8,6.3,24.7,13.2v-12.1H330v66.3h-11.1v-12.3c-4,7.1-12.6,13.4-24.8,13.4
		c-17.7,0-31.3-13.9-31.3-34.5C262.7,400.9,276.4,387.6,294.2,387.6z M296.4,397.1c-12.1,0-22.4,8.8-22.4,24.4s10.3,24.8,22.4,24.8
		c12.1,0,22.5-9.1,22.5-24.7C318.9,406.3,308.5,397.1,296.4,397.1z"/>
	<path class="st0" d="M377.5,456c-18.7,0-33-13.3-33-34.3c0-20.9,14.8-34.1,33.5-34.1c18.9,0,33.5,13.2,33.5,34.1
		C411.5,442.7,396.4,456,377.5,456z M377.5,446.4c11.5,0,22.7-7.9,22.7-24.7c0-16.7-11-24.5-22.4-24.5c-11.6,0-22.1,7.9-22.1,24.5
		C355.7,438.5,366,446.4,377.5,446.4z"/>
	<path class="st0" d="M437,454.9h-11v-66.3h11v10.8c3.7-7.4,10.9-12,21.4-12v11.4h-2.9c-10.5,0-18.5,4.7-18.5,20.1V454.9z"/>
	<path class="st0" d="M498.4,387.6c12.3,0,20.8,6.3,24.7,13.2v-12.1h11.1v66.3h-11.1v-12.3c-4,7.1-12.6,13.4-24.8,13.4
		c-17.7,0-31.3-13.9-31.3-34.5C467,400.9,480.6,387.6,498.4,387.6z M500.6,397.1c-12.1,0-22.4,8.8-22.4,24.4s10.3,24.8,22.4,24.8
		c12.1,0,22.5-9.1,22.5-24.7C523.1,406.3,512.7,397.1,500.6,397.1z"/>
	<path class="st0" d="M601.3,417.5c0-13.5-7.4-20.4-18.5-20.4c-11.2,0-19,7-19,21.3v36.6h-11v-66.3h11v9.4
		c4.4-6.9,12.3-10.6,21.3-10.6c15.4,0,27.1,9.4,27.1,28.4v39.1h-10.9V417.5z"/>
	<path class="st0" d="M739.5,395.1h-13.2c-4.6-9.8-13.8-15.5-25.6-15.5c-17.8,0-31.1,12.8-31.1,33.1c0,20.2,13.3,33,31.1,33
		c16.6,0,27.9-10.6,29.6-27.3h-33.6v-8.9H742v8.5c-1.9,20.9-18.5,37.7-41.4,37.7c-23.7,0-42.3-17.7-42.3-42.9
		c0-25.3,18.6-43,42.3-43C718.5,369.7,733.2,378.9,739.5,395.1z"/>
	<path class="st0" d="M815.3,454.9h-11v-9.8c-4.2,6.9-12.3,10.8-21.2,10.8c-15.2,0-27.2-9.4-27.2-28.4v-38.8h10.9V426
		c0,13.4,7.4,20.3,18.5,20.3c11.4,0,19-7,19-21.3v-36.4h11V454.9z"/>
	<path class="st0" d="M862.8,456c-18.7,0-33-13.3-33-34.3c0-20.9,14.8-34.1,33.5-34.1c18.9,0,33.5,13.2,33.5,34.1
		C896.8,442.7,881.7,456,862.8,456z M862.8,446.4c11.5,0,22.7-7.9,22.7-24.7c0-16.7-11-24.5-22.4-24.5c-11.6,0-22.1,7.9-22.1,24.5
		C841.1,438.5,851.3,446.4,862.8,446.4z"/>
</g>
<g>
</g>
<g>
</g>
<g>
</g>
<g>
</g>
<g>
</g>
<g>
</g>
<g>
</g>
<g>
</g>
<g>
</g>
<g>
</g>
<g>
</g>
<g>
</g>
<g>
</g>
<g>
</g>
<g>
</g>
</svg>
