<svg id="Layer_1" data-name="Layer 1" xmlns="http://www.w3.org/2000/svg" viewBox="0 0 713.5 86.3"><defs><style>.cls-1{fill:#edf6fb;}</style></defs><title>namex</title><path class="cls-1" d="M237.2,416.7H194.3v38.2h-11V370.6h11v37h42.9v-37h11v84.3h-11V416.7Z" transform="translate(-183.3 -369.8)"/><path class="cls-1" d="M294.2,387.6c12.3,0,20.8,6.3,24.7,13.2V388.7H330V455H318.9V442.7c-4,7.1-12.6,13.4-24.8,13.4-17.7,0-31.3-13.9-31.3-34.5S276.4,387.6,294.2,387.6Zm2.2,9.5c-12.1,0-22.4,8.8-22.4,24.4s10.3,24.8,22.4,24.8,22.5-9.1,22.5-24.7C318.9,406.3,308.5,397.1,296.4,397.1Z" transform="translate(-183.3 -369.8)"/><path class="cls-1" d="M377.5,456c-18.7,0-33-13.3-33-34.3s14.8-34.1,33.5-34.1c18.9,0,33.5,13.2,33.5,34.1S396.4,456,377.5,456Zm0-9.6c11.5,0,22.7-7.9,22.7-24.7s-11-24.5-22.4-24.5c-11.6,0-22.1,7.9-22.1,24.5C355.7,438.5,366,446.4,377.5,446.4Z" transform="translate(-183.3 -369.8)"/><path class="cls-1" d="M437,454.9H426V388.6h11v10.8c3.7-7.4,10.9-12,21.4-12v11.4h-2.9c-10.5,0-18.5,4.7-18.5,20.1Z" transform="translate(-183.3 -369.8)"/><path class="cls-1" d="M498.4,387.6c12.3,0,20.8,6.3,24.7,13.2V388.7h11.1V455H523.1V442.7c-4,7.1-12.6,13.4-24.8,13.4-17.7,0-31.3-13.9-31.3-34.5S480.6,387.6,498.4,387.6Zm2.2,9.5c-12.1,0-22.4,8.8-22.4,24.4s10.3,24.8,22.4,24.8,22.5-9.1,22.5-24.7C523.1,406.3,512.7,397.1,500.6,397.1Z" transform="translate(-183.3 -369.8)"/><path class="cls-1" d="M601.3,417.5c0-13.5-7.4-20.4-18.5-20.4s-19,7-19,21.3V455h-11V388.7h11v9.4c4.4-6.9,12.3-10.6,21.3-10.6,15.4,0,27.1,9.4,27.1,28.4V455H601.3V417.5Z" transform="translate(-183.3 -369.8)"/><path class="cls-1" d="M739.5,395.1H726.3c-4.6-9.8-13.8-15.5-25.6-15.5-17.8,0-31.1,12.8-31.1,33.1s13.3,33,31.1,33c16.6,0,27.9-10.6,29.6-27.3H696.7v-8.9H742V418c-1.9,20.9-18.5,37.7-41.4,37.7-23.7,0-42.3-17.7-42.3-42.9s18.6-43,42.3-43C718.5,369.7,733.2,378.9,739.5,395.1Z" transform="translate(-183.3 -369.8)"/><path class="cls-1" d="M815.3,454.9h-11v-9.8c-4.2,6.9-12.3,10.8-21.2,10.8-15.2,0-27.2-9.4-27.2-28.4V388.7h10.9V426c0,13.4,7.4,20.3,18.5,20.3,11.4,0,19-7,19-21.3V388.6h11Z" transform="translate(-183.3 -369.8)"/><path class="cls-1" d="M862.8,456c-18.7,0-33-13.3-33-34.3s14.8-34.1,33.5-34.1c18.9,0,33.5,13.2,33.5,34.1S881.7,456,862.8,456Zm0-9.6c11.5,0,22.7-7.9,22.7-24.7s-11-24.5-22.4-24.5c-11.6,0-22.1,7.9-22.1,24.5C841.1,438.5,851.3,446.4,862.8,446.4Z" transform="translate(-183.3 -369.8)"/></svg>