<svg id="Layer_1" data-name="Layer 1" xmlns="http://www.w3.org/2000/svg" viewBox="0 0 1066.88 720.5"><defs><style>.cls-1{fill:#edf6fb;}.cls-2{fill:#e9e8ea;}.cls-3{fill:#fff;stroke:#000;stroke-miterlimit:10;}.cls-4{fill:#ffa552;}.cls-5{fill:#d18844;}.cls-6{fill:#f7ce5b;}.cls-7{fill:#acb0bd;}.cls-8{fill:#aa8d44;}.cls-9{fill:#cba94b;}</style></defs><title>room</title><polyline class="cls-1" points="990.88 234 945.88 234 945.88 256 1017.88 256 1017.88 278 945.88 278 945.88 300 990.88 300 990.88 322.82 990.88 323 945.88 323 945.88 345 1017.88 345 1017.88 367 945.88 367 945.88 389 990.88 389 990.88 411.82 990.88 412 945.88 412 945.88 434 1017.88 434 1017.88 456 945.88 456 945.88 478 990.88 478 990.88 500.82 270.38 541.5 270.38 0.5 990.38 0.5 1066.88 0 1066.88 19 945.88 19 945.88 38 990.88 38 990.88 56 945.88 56 945.88 78 1017.88 78 1017.88 100 945.88 100 945.88 122 990.88 122 990.88 144.82 990.88 145 945.88 145 945.88 167 1017.88 167 1017.88 189 945.88 189 945.88 211 990.88 211 990.88 233.82"/><polygon class="cls-1" points="270.88 500 50.88 719 770.13 720.25 990.38 500 270.88 500 270.88 27.5 270.94 0.06 0 271 0 293.13 68.13 225 68.13 246.25 46.38 268 46.38 289.5 47.03 290.16 68.19 269 68.19 290.31 47.69 310.81 23.5 335 23.5 356.63 69.13 311 69.13 332.25 47.38 354 47.38 375.5 48.03 376.16 69.19 355 69.19 376.31 48.69 396.81 24.5 421 24.5 442.63 70.13 397 70.13 418.25 48.38 440 48.38 461.5 49.03 462.16 70.19 441 70.19 462.31 49.69 482.81 25.5 507 25.5 528.63 71.13 483 71.13 504.25 49.38 526 49.38 547.5 50.03 548.16 71.19 527 71.19 548.31 50.69 568.81 26.5 593 26.5 614.63 72.13 569 72.13 590.25 50.38 612 50.38 633.5 51.03 634.16 72.19 613 72.19 634.31 51.69 654.81 27.5 679 27.5 700.63 73.13 655 73.13 676.25 51.38 698 51.38 719.5 270.88 500 51.38 719.5 770.38 720.5 990.38 499.5 270.88 500"/><polyline class="cls-2" points="991.88 500 770.88 719.5 52.38 719.5 271.88 500"/><path class="cls-3" d="M770.25,338.75" transform="translate(-99.63 -15.5)"/><polygon class="cls-4" points="213.88 559 333.88 559 333.88 426 493.88 426 493.88 559 613.88 559 613.88 380 213.88 380 213.88 559"/><polygon class="cls-4" points="270.88 323.25 270.63 323.25 213.88 380 613.88 380 670.63 323.25 270.88 323.25"/><polygon class="cls-5" points="613.88 559 670.88 502 670.88 496 670.88 323 613.88 380 613.88 559"/><polygon class="cls-5" points="333.88 559 390.88 502 390.88 426 333.88 426 333.88 559"/><path class="cls-3" d="M599.5,472.83" transform="translate(-99.63 -15.5)"/><rect class="cls-6" x="619.75" y="481.75" width="68.5" height="109" transform="translate(10.55 1168.46) rotate(-89.33)"/><rect class="cls-7" x="541.88" y="512" width="24" height="6"/><polyline class="cls-8" points="538.38 442.5 511.88 458 541.38 467.5 593.38 460.5 592.38 436.5"/><polyline class="cls-9" points="467.88 457 467.88 515 535.38 447.5 535.38 426 499.38 426 467.88 457.5 467.38 458"/><rect class="cls-6" x="467.88" y="458" width="109" height="57"/><polygon class="cls-9" points="576.88 458 608.88 426 608.88 483 576.88 515 576.88 458"/><polygon class="cls-6" points="534.88 447 587.88 447 608.88 426 534.88 426 534.88 447"/><rect class="cls-6" x="218.88" y="426" width="109" height="57"/><rect class="cls-6" x="218.88" y="487" width="109" height="67.5"/><rect class="cls-7" x="258.88" y="451" width="24" height="6"/><rect class="cls-7" x="258.88" y="512" width="24" height="6"/><rect class="cls-7" x="509.88" y="484" width="24" height="6"/></svg>