<svg id="Layer_1" data-name="Layer 1" xmlns="http://www.w3.org/2000/svg" viewBox="0 0 1504.41 1041.54"><defs><style>.cls-1,.cls-2{fill:#edf6fb;stroke:#edf6fb;stroke-miterlimit:10;}.cls-2{stroke-width:4px;}</style></defs><title>filledsd</title><path class="cls-1" d="M1666.93,275s.85,34.39,9.4,44.72c0,0-4.89,34.66,9.51,52.93,0,0-3.78,39.19,5.5,54,0,0-9.88,44.85,0,59.65,0,0-10.92,33-4.72,47.43,0,0-11.23,33.49-5.08,48.12-17.6,43.28-6.34,42.92-2.33,44.05s20.64,4.2,27.64.12,3.83-45.46,3.83-45.46c8.61-2.93,2.66-45.58,2.66-45.58,9.9-2.11.43-51.25.43-51.25,11-6-4-59.53-4-59.53,10.92-9.88-8.67-56.53-8.67-56.53,10-9.16-10-51.1-10-51.1,6.8-6.24-14-46.65-14-46.65S1666.8,259.39,1666.93,275Z" transform="translate(-367.61 -108.46)"/><path class="cls-1" d="M1672.06,282.48s-3.09,44.5-8.41,44.77-10.48-5-10.25-1-2.06,31.37-2.06,31.37-14.73-6.87-15.69-3.13,2.39,32.32-5.54,33.55-11.94-3.61-11.94-3.61-5.48,32.65-1.95,46.43c0,0-10.75-4-15.16-6.61,0,0-7.45,28.34-6.44,49.08,0,0-23.47-25.05-15.44-69a45.79,45.79,0,0,0-9.89,6.43s-9.49-13.86,24.24-53.84c0,0-14.7,2.93-23.23,11.43,0,0-2.71-13.11,49.47-48.71,0,0-10.37-2.66-25.65,4.65C1594.12,324.25,1615.25,290.27,1672.06,282.48Z" transform="translate(-367.61 -108.46)"/><path class="cls-1" d="M1601.05,424.23c4.41,2.58,15.16,6.61,15.16,6.61-3.53-13.77,1.95-46.43,1.95-46.43s4,4.83,11.94,3.61,4.58-29.81,5.54-33.55,15.69,3.13,15.69,3.13,2.3-27.31,2.06-31.37,4.93,1.27,10.25,1,8.41-44.77,8.41-44.77c-112.3,87.23-77.44,190.83-77.44,190.83C1593.6,452.57,1601.05,424.23,1601.05,424.23Z" transform="translate(-367.61 -108.46)"/><path class="cls-1" d="M1672.64,283.52s-42.55,13.39-44.74,8.53.86-11.6-2.82-9.91-29.95,9.53-29.95,9.53,1-16.22-2.82-15.74-29.21,14-33.25,7.11-1-12.43-1-12.43-32.4,6.82-43.92,15.14c0,0-.18-11.46.61-16.51,0,0-29.1,3.41-48,11.94,0,0,14.75-31,58.6-39.59a46,46,0,0,0-9.6-6.86s9.43-13.9,59,2.9c0,0-8.1-12.62-19.13-17.45,0,0,11.22-7.31,63.43,28.25,0,0-1.31-10.63-13.7-22.18C1605.27,226.24,1644.63,233.49,1672.64,283.52Z" transform="translate(-367.61 -108.46)"/><path class="cls-1" d="M1514.74,269.24c-.79,5-.61,16.51-.61,16.51,11.52-8.32,43.92-15.14,43.92-15.14s-3,5.5,1,12.43,29.42-6.64,33.25-7.11,2.82,15.74,2.82,15.74,26.27-7.84,29.95-9.53.63,5.05,2.82,9.91,44.74-8.53,44.74-8.53c-122.23-72.65-205.93-2.34-205.93-2.34C1485.64,272.65,1514.74,269.24,1514.74,269.24Z" transform="translate(-367.61 -108.46)"/><path class="cls-1" d="M1668,273.49s-35-16.23-33.56-20.6,7.31-6.91,4-8-24.69-11.34-24.69-11.34,10.08-9.78,7.35-11.7-26.84-8-25.39-14.82,6.6-8.53,6.6-8.53-24.68-14.5-36.89-15.89c0,0,6.57-7.44,10-10.2,0,0-20.58-14.76-37.65-20.34,0,0,27.47-11.22,60.5,8.82a40.11,40.11,0,0,0-2.14-10s14.11-3.39,36,36.18c0,0,2.17-12.78-2.06-22.29,0,0,11.42,1.87,24.09,55,0,0,5.35-7.55,4.16-22.15C1658.28,197.66,1679.2,225.21,1668,273.49Z" transform="translate(-367.61 -108.46)"/><path class="cls-1" d="M1575.37,172.43c-3.44,2.77-10,10.2-10,10.2,12.22,1.39,36.89,15.89,36.89,15.89s-5.14,1.75-6.6,8.53,22.67,12.88,25.39,14.82-7.35,11.7-7.35,11.7,21.34,10.28,24.69,11.34-2.54,3.59-4,8,33.56,20.6,33.56,20.6c-35.82-117.6-130.25-121.4-130.25-121.4C1554.79,157.67,1575.37,172.43,1575.37,172.43Z" transform="translate(-367.61 -108.46)"/><path class="cls-1" d="M1673.77,279.67s31.73,31.35,35.89,28,4.53-10.71,7-7.53S1739,322.34,1739,322.34s6.52-14.89,9.72-12.71,19.56,25.83,26.32,21.52,6.57-10.6,6.57-10.6,25.7,20.88,32.15,33.55c0,0,5.4-10.12,7-15,0,0,24.33,16.35,37.27,32.58,0,0,1.06-34.3-34-62a46,46,0,0,1,11.67-1.71s-2-16.67-53.77-24.39c0,0,13-7.52,25-6.77,0,0-6.63-11.63-69.32-3.87,0,0,6-8.85,22.32-13.46C1759.87,259.51,1721.54,248,1673.77,279.67Z" transform="translate(-367.61 -108.46)"/><path class="cls-1" d="M1820.73,339.13c-1.6,4.85-7,15-7,15-6.45-12.67-32.15-33.55-32.15-33.55s.19,6.28-6.57,10.6-23.13-19.35-26.32-21.52-9.72,12.71-9.72,12.71-19.77-19-22.27-22.17-2.87,4.21-7,7.53-35.89-28-35.89-28c141.91-8.75,184.23,92,184.23,92C1845.06,355.48,1820.73,339.13,1820.73,339.13Z" transform="translate(-367.61 -108.46)"/><path class="cls-1" d="M1671.92,283.87s34.43-28.37,31.56-32.85-10.2-5.59-6.77-7.76S1721,223.36,1721,223.36s-14.15-8-11.65-11,27.7-16.83,24.1-24-9.88-7.62-9.88-7.62,23.4-23.43,36.66-28.55c0,0-9.52-6.4-14.18-8.5,0,0,18.74-22.53,36.21-33.75,0,0-34-4.55-65.14,27.52a46,46,0,0,1-.51-11.79s-16.79.32-29.75,51c0,0-6.15-13.67-4.18-25.55,0,0-12.24,5.42-10.92,68.57,0,0-8.19-6.89-11.12-23.58C1660.65,196.16,1645.27,233.1,1671.92,283.87Z" transform="translate(-367.61 -108.46)"/><path class="cls-1" d="M1746.07,143.73c4.66,2.1,14.18,8.5,14.18,8.5-13.26,5.13-36.66,28.55-36.66,28.55s6.26.46,9.88,7.62-21.61,21-24.1,24,11.65,11,11.65,11-20.9,17.73-24.32,19.89,3.9,3.28,6.77,7.76-31.56,32.85-31.56,32.85C1677.69,141.79,1782.27,110,1782.27,110,1764.81,121.2,1746.07,143.73,1746.07,143.73Z" transform="translate(-367.61 -108.46)"/><path class="cls-1" d="M1684.67,274.44s29.78,1.79,30.41-1.71-2.44-7.38.22-6.89,21,1.34,21,1.34-3.27-10.36-.72-10.67,21.22,4.37,22.72-.77a8.76,8.76,0,0,0-1.36-8.24s22.12-.82,31,2.72a97.15,97.15,0,0,0-3.07-10.62s19.43-2.5,33.09,0c0,0-14.58-17.72-44.42-16.19a31,31,0,0,1,5.12-6s-8.37-7.48-37.79,11.42c0,0,3.21-9.49,9.59-14.41,0,0-8.46-2.93-36.58,28.59,0,0-.86-7.1,5.3-16.6C1719.09,226.37,1694.74,237.44,1684.67,274.44Z" transform="translate(-367.61 -108.46)"/><path class="cls-2" d="M895.06,1023.08c-94,87.58-103.25,0-103.25,0-1.84-79.74,76.52-47,76.52-47-48-77.87-138.24,11.37-163.7,39.24l-13.81,14.08c-87.52,76.9-96.28-6.31-96.28-6.31-1.84-79.74,76.52-47,76.52-47-56.23-91.27-170.55,47-170.55,47s-95,115.42-121,124.42h911l-.44-124.42c-94,87.58-103.25,0-103.25,0-1.84-79.74,76.52-47,76.52-47-48-77.87-138.24,11.37-163.7,39.24l-13.81,14.08c-87.52,76.9-96.28-6.31-96.28-6.31-1.84-79.74,76.52-47,76.52-47-56.23-91.27-170.55,47-170.55,47" transform="translate(-367.61 -108.46)"/><path class="cls-1" d="M1284.5,1147.5" transform="translate(-367.61 -108.46)"/><path class="cls-1" d="M1233,1149.5s110.5-324,230.5-239,0-285,0-285h388l20,524Z" transform="translate(-367.61 -108.46)"/><path class="cls-1" d="M1536.32,580.57l.1,35.51-7.71,7.71s-5.14-4.91-7.48-3.74c0,0,1.64-6.31-1.4-7.24l12.62.93-.53-33.81" transform="translate(-367.61 -108.46)"/><path class="cls-1" d="M1506.52,519.82s-5.84-6.54-7.48-9.58-.93-7.24-.93-7.24-.23-8.65,14.25-9.81,16.82,15.42,16.82,15.42.93,13.55,2.34,16.59,9.81,3.5,9.81,3.5,41.59,6.07,51.17,35c0,0,39.72,34.58,31.54,33.88S1583.39,582,1583.39,582c-63.32,15.89-82.95-31.08-82.95-31.08-5.61-8.41,2.34-24.3,2.34-24.3l3.74-6.78" transform="translate(-367.61 -108.46)"/><path class="cls-1" d="M1499.51,511.32s-18.86,4-19.43,3.21,2.08-3,2.08-3c3-2.83,15.85-6.41,15.85-6.41a8.13,8.13,0,0,0,1.51,6.23" transform="translate(-367.61 -108.46)"/><path class="cls-1" d="M1577.38,573.3c14.27,8.18,36.74,21,39,21.76,3.27,1.17,1.64-.93,1.64-.93s-4.21-4.21.93-1.87,2.91-.52,2.91-.52c-6.63-7.73-21.29-20.9-27-25.94l-4.9-1.11s1.17,3.27-1.17,2.34l-3.74-.7s4.21,4,.7,3-5.61-1.4-5.61-1.4,2.1,5.14-3.74,5.37Z" transform="translate(-367.61 -108.46)"/><path class="cls-1" d="M1592.5,563.75c-9.58-29-51.17-35-51.17-35a25.12,25.12,0,0,1-7.69-1.68s-2.83-1.83-4.23-1.6c0,0-4,0-6.31,1.4a21.18,21.18,0,0,0-4.44,3c-1.87,1.64-.84,1.66-.84,1.66,2.45,9,9.52,29.42,23.51,31.05a20.53,20.53,0,0,0,4-.47s6.54,10.28,9.35,10.28,2.1-3.74,2.1-3.74c.93.47,21.73,8.65,20.33-.93l-.7-3s4.67,1.64,5.37.93-3-5.61-3-5.61,6.54,4.91,7.24,3.74-1.4-5.14-1.4-5.14l7.71,5.14" transform="translate(-367.61 -108.46)"/><circle class="cls-1" cx="1144.75" cy="395.47" r="3.04"/><circle class="cls-1" cx="1143.35" cy="396.41" r="1.4"/><path class="cls-1" d="M1549.88,584.78l.1,35.51-7.71,7.71s-5.14-4.91-7.48-3.74c0,0,1.64-6.31-1.4-7.24L1546,618l-.53-33.81" transform="translate(-367.61 -108.46)"/><polygon class="cls-1" points="1174.19 517.44 1178.16 513.24 1170.69 515.34 1174.19 517.44"/><polygon class="cls-1" points="1168.82 510.2 1168.82 514.17 1176.76 512.07 1168.82 510.2"/><polygon class="cls-1" points="1160.64 513.47 1164.61 509.26 1157.14 511.37 1160.64 513.47"/><polygon class="cls-1" points="1155.27 506.23 1155.27 510.2 1163.21 508.1 1155.27 506.23"/></svg>