<?xml version="1.0" encoding="utf-8"?>
<!-- Generator: Adobe Illustrator 21.1.0, SVG Export Plug-In . SVG Version: 6.00 Build 0)  -->
<svg version="1.1" id="Layer_1" xmlns="http://www.w3.org/2000/svg" xmlns:xlink="http://www.w3.org/1999/xlink" x="0px" y="0px"
	 viewBox="0 0 1504.4 1040.2" style="enable-background:new 0 0 1504.4 1040.2;" xml:space="preserve">
<style type="text/css">
	.st0{fill:#F28F4C;}
	.st1{fill:#90BC37;}
	.st2{fill:#568C2E;}
	.st3{fill:#0063F2;stroke:#EDF6FB;stroke-width:4;stroke-miterlimit:10;}
	.st4{fill:#020000;stroke:#000000;stroke-miterlimit:10;}
	.st5{fill:#FFFFFF;stroke:#000000;stroke-miterlimit:10;}
	.st6{fill:#BC9115;stroke:#BC9115;stroke-miterlimit:10;}
	.st7{fill:#E8C547;stroke:#E8C547;stroke-miterlimit:10;}
	.st8{fill:#EDF6FB;stroke:#EDF6FB;stroke-miterlimit:10;}
	.st9{fill:#9E9E9E;}
	.st10{fill:#A5A5A5;}
	.st11{fill:#F9F9F9;stroke:#000000;stroke-miterlimit:10;}
	.st12{stroke:#000000;stroke-miterlimit:10;}
	.st13{fill:#F99D0B;stroke:#F99D0B;stroke-miterlimit:10;}
</style>
<title>sd</title>
<path class="st0" d="M1299.3,165.2c0,0,0.8,34.4,9.4,44.7c0,0-4.9,34.7,9.5,52.9c0,0-3.8,39.2,5.5,54c0,0-9.9,44.9,0,59.6
	c0,0-10.9,33-4.7,47.4c0,0-11.2,33.5-5.1,48.1c-17.6,43.3-6.3,42.9-2.3,44s20.6,4.2,27.6,0.1s3.8-45.5,3.8-45.5
	c8.6-2.9,2.7-45.6,2.7-45.6c9.9-2.1,0.4-51.3,0.4-51.3c11-6-4-59.5-4-59.5c10.9-9.9-8.7-56.5-8.7-56.5c10-9.2-10-51.1-10-51.1
	c6.8-6.2-14-46.6-14-46.6S1299.2,149.6,1299.3,165.2z"/>
<path class="st1" d="M1304.5,172.7c0,0-3.1,44.5-8.4,44.8s-10.5-5-10.3-1s-2.1,31.4-2.1,31.4s-14.7-6.9-15.7-3.1s2.4,32.3-5.5,33.5
	s-11.9-3.6-11.9-3.6s-5.5,32.6-1.9,46.4c0,0-10.8-4-15.2-6.6c0,0-7.4,28.3-6.4,49.1c0,0-23.5-25-15.4-69c-3.6,1.7-6.9,3.9-9.9,6.4
	c0,0-9.5-13.9,24.2-53.8c0,0-14.7,2.9-23.2,11.4c0,0-2.7-13.1,49.5-48.7c0,0-10.4-2.7-25.7,4.6
	C1226.5,214.5,1247.6,180.5,1304.5,172.7z"/>
<path class="st2" d="M1233.4,314.5c4.4,2.6,15.2,6.6,15.2,6.6c-3.5-13.8,1.9-46.4,1.9-46.4s4,4.8,11.9,3.6s4.6-29.8,5.5-33.5
	s15.7,3.1,15.7,3.1s2.3-27.3,2.1-31.4s4.9,1.3,10.3,1s8.4-44.8,8.4-44.8c-112.3,87.2-77.4,190.8-77.4,190.8
	C1226,342.8,1233.4,314.5,1233.4,314.5z"/>
<path class="st1" d="M1305,173.8c0,0-42.6,13.4-44.7,8.5s0.9-11.6-2.8-9.9s-29.9,9.5-29.9,9.5s1-16.2-2.8-15.7s-29.2,14-33.3,7.1
	s-1-12.4-1-12.4s-32.4,6.8-43.9,15.1c0,0-0.2-11.5,0.6-16.5c0,0-29.1,3.4-48,11.9c0,0,14.8-31,58.6-39.6c-2.9-2.7-6.1-5-9.6-6.9
	c0,0,9.4-13.9,59,2.9c0,0-8.1-12.6-19.1-17.4c0,0,11.2-7.3,63.4,28.3c0,0-1.3-10.6-13.7-22.2C1237.7,116.5,1277,123.7,1305,173.8z"
	/>
<path class="st2" d="M1147.1,159.5c-0.8,5-0.6,16.5-0.6,16.5c11.5-8.3,43.9-15.1,43.9-15.1s-3,5.5,1,12.4s29.4-6.6,33.3-7.1
	s2.8,15.7,2.8,15.7s26.3-7.8,29.9-9.5s0.6,5.1,2.8,9.9s44.7-8.5,44.7-8.5c-122.2-72.7-205.9-2.3-205.9-2.3
	C1118,162.9,1147.1,159.5,1147.1,159.5z"/>
<path class="st1" d="M1300.4,163.7c0,0-35-16.2-33.6-20.6s7.3-6.9,4-8s-24.7-11.3-24.7-11.3s10.1-9.8,7.3-11.7s-26.8-8-25.4-14.8
	s6.6-8.5,6.6-8.5s-24.7-14.5-36.9-15.9c0,0,6.6-7.4,10-10.2c0,0-20.6-14.8-37.7-20.3c0,0,27.5-11.2,60.5,8.8c-0.3-3.4-1-6.8-2.1-10
	c0,0,14.1-3.4,36,36.2c0,0,2.2-12.8-2.1-22.3c0,0,11.4,1.9,24.1,55c0,0,5.3-7.6,4.2-22.2C1290.7,87.9,1311.6,115.4,1300.4,163.7z"/>
<path class="st2" d="M1207.8,62.7c-3.4,2.8-10,10.2-10,10.2c12.2,1.4,36.9,15.9,36.9,15.9s-5.1,1.8-6.6,8.5s22.7,12.9,25.4,14.8
	s-7.3,11.7-7.3,11.7s21.3,10.3,24.7,11.3s-2.5,3.6-4,8s33.6,20.6,33.6,20.6c-35.8-117.6-130.3-121.4-130.3-121.4
	C1187.2,47.9,1207.8,62.7,1207.8,62.7z"/>
<path class="st1" d="M1306.2,169.9c0,0,31.7,31.4,35.9,28s4.5-10.7,7-7.5s22.3,22.2,22.3,22.2s6.5-14.9,9.7-12.7
	s19.6,25.8,26.3,21.5s6.6-10.6,6.6-10.6s25.7,20.9,32.2,33.6c0,0,5.4-10.1,7-15c0,0,24.3,16.4,37.3,32.6c0,0,1.1-34.3-34-62
	c3.8-1.1,7.7-1.6,11.7-1.7c0,0-2-16.7-53.8-24.4c0,0,13-7.5,25-6.8c0,0-6.6-11.6-69.3-3.9c0,0,6-8.9,22.3-13.5
	C1392.3,149.8,1353.9,138.2,1306.2,169.9z"/>
<path class="st2" d="M1453.1,229.4c-1.6,4.9-7,15-7,15c-6.4-12.7-32.2-33.6-32.2-33.6s0.2,6.3-6.6,10.6s-23.1-19.4-26.3-21.5
	s-9.7,12.7-9.7,12.7s-19.8-19-22.3-22.2s-2.9,4.2-7,7.5s-35.9-28-35.9-28c141.9-8.8,184.2,92,184.2,92
	C1477.5,245.7,1453.1,229.4,1453.1,229.4z"/>
<path class="st1" d="M1304.3,174.1c0,0,34.4-28.4,31.6-32.9s-10.2-5.6-6.8-7.8s24.3-19.9,24.3-19.9s-14.2-8-11.7-11
	s27.7-16.8,24.1-24S1356,71,1356,71s23.4-23.4,36.7-28.5c0,0-9.5-6.4-14.2-8.5c0,0,18.7-22.5,36.2-33.8c0,0-34-4.6-65.1,27.5
	c-0.7-3.9-0.8-7.9-0.5-11.8c0,0-16.8,0.3-29.8,51c0,0-6.2-13.7-4.2-25.5c0,0-12.2,5.4-10.9,68.6c0,0-8.2-6.9-11.1-23.6
	C1293,86.4,1277.7,123.3,1304.3,174.1z"/>
<path class="st2" d="M1378.5,34c4.7,2.1,14.2,8.5,14.2,8.5C1379.4,47.6,1356,71,1356,71s6.3,0.5,9.9,7.6s-21.6,21-24.1,24
	s11.7,11,11.7,11s-20.9,17.7-24.3,19.9s3.9,3.3,6.8,7.8s-31.6,32.8-31.6,32.8C1310.1,32,1414.7,0.2,1414.7,0.2
	C1397.2,11.4,1378.5,34,1378.5,34z"/>
<path class="st1" d="M1317.1,164.7c0,0,29.8,1.8,30.4-1.7s-2.4-7.4,0.2-6.9s21,1.3,21,1.3s-3.3-10.4-0.7-10.7s21.2,4.4,22.7-0.8
	c1-2.8,0.5-5.9-1.4-8.2c0,0,22.1-0.8,31,2.7c-0.8-3.6-1.8-7.1-3.1-10.6c0,0,19.4-2.5,33.1,0c0,0-14.6-17.7-44.4-16.2
	c1.4-2.2,3.2-4.2,5.1-6c0,0-8.4-7.5-37.8,11.4c0,0,3.2-9.5,9.6-14.4c0,0-8.5-2.9-36.6,28.6c0,0-0.9-7.1,5.3-16.6
	C1351.5,116.6,1327.1,127.7,1317.1,164.7z"/>
<path class="st3" d="M527.5,913.3c-94,87.6-103.3,0-103.3,0c-1.8-79.7,76.5-47,76.5-47c-48-77.9-138.2,11.4-163.7,39.2l-13.8,14.1
	c-87.5,76.9-96.3-6.3-96.3-6.3c-1.8-79.7,76.5-47,76.5-47c-56.2-91.3-170.5,47-170.5,47s-95,115.4-121,124.4h911l-0.4-124.4
	c-94,87.6-103.3,0-103.3,0c-1.8-79.7,76.5-47,76.5-47c-48-77.9-138.2,11.4-163.7,39.2l-13.8,14.1c-87.5,76.9-96.3-6.3-96.3-6.3
	c-1.8-79.7,76.5-47,76.5-47c-56.2-91.3-170.5,47-170.5,47"/>
<path class="st4" d="M637.9,1170.7"/>
<path class="st5" d="M916.9,1037.7"/>
<path class="st6" d="M865.4,1039.7c0,0,110.5-324,230.5-239s0-285,0-285h388l20,524H865.4z"/>
<path class="st7" d="M1168.7,470.8l0.1,35.5l-7.7,7.7c0,0-5.1-4.9-7.5-3.7c0,0,1.6-6.3-1.4-7.2l12.6,0.9l-0.5-33.8"/>
<path class="st8" d="M1138.9,410.1c0,0-5.8-6.5-7.5-9.6s-0.9-7.2-0.9-7.2s-0.2-8.6,14.3-9.8s16.8,15.4,16.8,15.4s0.9,13.5,2.3,16.6
	s9.8,3.5,9.8,3.5s41.6,6.1,51.2,35c0,0,39.7,34.6,31.5,33.9s-40.7-15.6-40.7-15.6c-63.3,15.9-82.9-31.1-82.9-31.1
	c-5.6-8.4,2.3-24.3,2.3-24.3L1138.9,410.1"/>
<path class="st7" d="M1131.9,401.6c0,0-18.9,4-19.4,3.2s2.1-3,2.1-3c3-2.8,15.8-6.4,15.8-6.4C1130,397.6,1130.6,399.8,1131.9,401.6"
	/>
<path class="st9" d="M1209.8,463.5c14.3,8.2,36.7,21,39,21.8c3.3,1.2,1.6-0.9,1.6-0.9s-4.2-4.2,0.9-1.9s2.9-0.5,2.9-0.5
	c-6.6-7.7-21.3-20.9-27-25.9l-4.9-1.1c0,0,1.2,3.3-1.2,2.3l-3.7-0.7c0,0,4.2,4,0.7,3s-5.6-1.4-5.6-1.4s2.1,5.1-3.7,5.4L1209.8,463.5
	z"/>
<path class="st10" d="M1224.9,454c-9.6-29-51.2-35-51.2-35c-2.6-0.2-5.2-0.7-7.7-1.7c0,0-2.8-1.8-4.2-1.6c0,0-4,0-6.3,1.4
	c-1.6,0.8-3.1,1.8-4.4,3c-1.9,1.6-0.8,1.7-0.8,1.7c2.4,9,9.5,29.4,23.5,31c1.3,0,2.7-0.2,4-0.5c0,0,6.5,10.3,9.3,10.3
	s2.1-3.7,2.1-3.7c0.9,0.5,21.7,8.6,20.3-0.9l-0.7-3c0,0,4.7,1.6,5.4,0.9s-3-5.6-3-5.6s6.5,4.9,7.2,3.7s-1.4-5.1-1.4-5.1l7.7,5.1"/>
<circle class="st11" cx="1144.8" cy="394.2" r="3"/>
<circle class="st12" cx="1143.3" cy="395.1" r="1.4"/>
<path class="st7" d="M1182.3,475l0.1,35.5l-7.7,7.7c0,0-5.1-4.9-7.5-3.7c0,0,1.6-6.3-1.4-7.2l12.6,1l-0.5-33.8"/>
<polygon class="st13" points="1174.2,516.1 1178.2,511.9 1170.7,514 "/>
<polygon class="st13" points="1168.8,508.9 1168.8,512.9 1176.8,510.8 "/>
<polygon class="st13" points="1160.6,512.2 1164.6,508 1157.1,510.1 "/>
<polygon class="st13" points="1155.3,504.9 1155.3,508.9 1163.2,506.8 "/>
</svg>
