<svg id="Layer_1" data-name="Layer 1" xmlns="http://www.w3.org/2000/svg" viewBox="0 0 1504.4 1040.28"><defs><style>.cls-1{fill:#f28f4c;}.cls-2{fill:#90bc37;}.cls-3{fill:#568c2e;}.cls-4{fill:#00c2ef;stroke:#00c2ef;stroke-width:4px;}.cls-12,.cls-13,.cls-14,.cls-4,.cls-5,.cls-6,.cls-7,.cls-8,.cls-9{stroke-miterlimit:10;}.cls-5{fill:#020000;}.cls-12,.cls-13,.cls-5,.cls-6{stroke:#000;}.cls-6{fill:#fff;}.cls-7{fill:#bc9115;stroke:#bc9115;}.cls-8{fill:#e8c547;stroke:#e8c547;}.cls-9{fill:#edf6fb;stroke:#edf6fb;}.cls-10{fill:#9e9e9e;}.cls-11{fill:#a5a5a5;}.cls-12{fill:#f9f9f9;}.cls-14{fill:#f99d0b;stroke:#f99d0b;}</style></defs><title>sd5</title><path class="cls-1" d="M1299.32,165.24s.85,34.39,9.4,44.72c0,0-4.89,34.66,9.51,52.93,0,0-3.78,39.19,5.5,54,0,0-9.88,44.85,0,59.65,0,0-10.92,33-4.72,47.43,0,0-11.23,33.49-5.08,48.12-17.6,43.28-6.34,42.92-2.33,44s20.64,4.2,27.64.12,3.83-45.46,3.83-45.46c8.61-2.93,2.66-45.58,2.66-45.58,9.9-2.11.43-51.25.43-51.25,11-6-4-59.53-4-59.53,10.92-9.88-8.67-56.53-8.67-56.53,10-9.16-10-51.1-10-51.1,6.8-6.24-14-46.65-14-46.65S1299.19,149.63,1299.32,165.24Z" transform="translate(-0.01 0.04)"/><path class="cls-2" d="M1304.45,172.72s-3.09,44.5-8.41,44.77-10.48-5-10.25-1-2.06,31.37-2.06,31.37S1269,241,1268,244.73s2.39,32.32-5.54,33.55-11.94-3.61-11.94-3.61-5.48,32.65-1.95,46.43c0,0-10.75-4-15.16-6.61,0,0-7.45,28.34-6.44,49.08,0,0-23.47-25-15.44-69a45.79,45.79,0,0,0-9.89,6.43s-9.49-13.86,24.24-53.84c0,0-14.7,2.93-23.23,11.43,0,0-2.71-13.11,49.47-48.71,0,0-10.37-2.66-25.65,4.65C1226.51,214.49,1247.64,180.51,1304.45,172.72Z" transform="translate(-0.01 0.04)"/><path class="cls-3" d="M1233.44,314.47c4.41,2.58,15.16,6.61,15.16,6.61-3.53-13.77,1.95-46.43,1.95-46.43s4,4.83,11.94,3.61,4.58-29.81,5.54-33.55,15.69,3.13,15.69,3.13,2.3-27.31,2.06-31.37,4.93,1.27,10.25,1,8.41-44.77,8.41-44.77C1192.14,259.93,1227,363.53,1227,363.53,1226,342.81,1233.44,314.47,1233.44,314.47Z" transform="translate(-0.01 0.04)"/><path class="cls-2" d="M1305,173.76s-42.55,13.39-44.74,8.53.86-11.6-2.82-9.91-29.95,9.53-29.95,9.53,1-16.22-2.82-15.74-29.21,14-33.25,7.11-1-12.43-1-12.43-32.4,6.82-43.92,15.14c0,0-.18-11.46.61-16.51,0,0-29.1,3.41-48,11.94,0,0,14.75-31,58.6-39.59a46,46,0,0,0-9.6-6.86s9.43-13.9,59,2.9c0,0-8.1-12.62-19.13-17.45,0,0,11.22-7.31,63.43,28.25,0,0-1.31-10.63-13.7-22.18C1237.66,116.48,1277,123.73,1305,173.76Z" transform="translate(-0.01 0.04)"/><path class="cls-3" d="M1147.13,159.48c-.79,5-.61,16.51-.61,16.51,11.52-8.32,43.92-15.14,43.92-15.14s-3,5.5,1,12.43,29.42-6.64,33.25-7.11,2.82,15.74,2.82,15.74,26.27-7.84,29.95-9.53.63,5.05,2.82,9.91,44.74-8.53,44.74-8.53c-122.23-72.65-205.93-2.34-205.93-2.34C1118,162.89,1147.13,159.48,1147.13,159.48Z" transform="translate(-0.01 0.04)"/><path class="cls-2" d="M1300.39,163.73s-35-16.23-33.56-20.6,7.31-6.91,4-8-24.69-11.34-24.69-11.34,10.08-9.78,7.35-11.7-26.84-8-25.39-14.82,6.6-8.53,6.6-8.53-24.68-14.5-36.89-15.89c0,0,6.57-7.44,10-10.2,0,0-20.58-14.76-37.65-20.34,0,0,27.47-11.22,60.5,8.82a40.11,40.11,0,0,0-2.14-10s14.11-3.39,36,36.18c0,0,2.17-12.78-2.06-22.29,0,0,11.42,1.87,24.09,55,0,0,5.35-7.55,4.16-22.15C1290.67,87.9,1311.59,115.45,1300.39,163.73Z" transform="translate(-0.01 0.04)"/><path class="cls-3" d="M1207.76,62.67c-3.44,2.77-10,10.2-10,10.2,12.22,1.39,36.89,15.89,36.89,15.89s-5.14,1.75-6.6,8.53,22.67,12.88,25.39,14.82-7.35,11.7-7.35,11.7,21.34,10.28,24.69,11.34-2.54,3.59-4,8,33.56,20.6,33.56,20.6c-35.82-117.6-130.25-121.4-130.25-121.4C1187.18,47.91,1207.76,62.67,1207.76,62.67Z" transform="translate(-0.01 0.04)"/><path class="cls-2" d="M1306.16,169.91s31.73,31.35,35.89,28,4.53-10.71,7-7.53,22.34,22.2,22.34,22.2,6.52-14.89,9.72-12.71,19.56,25.83,26.32,21.52,6.57-10.6,6.57-10.6,25.7,20.88,32.15,33.55c0,0,5.4-10.12,7-15,0,0,24.33,16.35,37.27,32.58,0,0,1.06-34.3-34-62a46,46,0,0,1,11.67-1.71s-2-16.67-53.77-24.39c0,0,13-7.52,25-6.77,0,0-6.63-11.63-69.32-3.87,0,0,6-8.85,22.32-13.46C1392.26,149.75,1353.93,138.24,1306.16,169.91Z" transform="translate(-0.01 0.04)"/><path class="cls-3" d="M1453.12,229.37c-1.6,4.85-7,15-7,15-6.45-12.67-32.15-33.55-32.15-33.55s.19,6.28-6.57,10.6-23.13-19.35-26.32-21.52-9.72,12.71-9.72,12.71-19.77-19-22.27-22.17-2.87,4.21-7,7.53-35.89-28-35.89-28c141.91-8.75,184.23,92,184.23,92C1477.45,245.72,1453.12,229.37,1453.12,229.37Z" transform="translate(-0.01 0.04)"/><path class="cls-2" d="M1304.31,174.11s34.43-28.37,31.56-32.85-10.2-5.59-6.77-7.76,24.29-19.9,24.29-19.9-14.15-8-11.65-11,27.7-16.83,24.1-24S1356,71,1356,71s23.4-23.43,36.66-28.55c0,0-9.52-6.4-14.18-8.5,0,0,18.74-22.53,36.21-33.75,0,0-34-4.55-65.14,27.52a46,46,0,0,1-.51-11.79s-16.79.32-29.75,51c0,0-6.15-13.67-4.18-25.55,0,0-12.24,5.42-10.92,68.57,0,0-8.19-6.89-11.12-23.58C1293,86.4,1277.66,123.34,1304.31,174.11Z" transform="translate(-0.01 0.04)"/><path class="cls-3" d="M1378.46,34c4.66,2.1,14.18,8.5,14.18,8.5C1379.38,47.6,1356,71,1356,71s6.26.46,9.88,7.62-21.61,21-24.1,24,11.65,11,11.65,11-20.9,17.73-24.32,19.89,3.9,3.28,6.77,7.76-31.56,32.85-31.56,32.85C1310.08,32,1414.66.24,1414.66.24,1397.2,11.44,1378.46,34,1378.46,34Z" transform="translate(-0.01 0.04)"/><path class="cls-2" d="M1317.06,164.68s29.78,1.79,30.41-1.71-2.44-7.38.22-6.89,21,1.34,21,1.34-3.27-10.36-.72-10.67,21.22,4.37,22.72-.77a8.76,8.76,0,0,0-1.36-8.24s22.12-.82,31,2.72a97.17,97.17,0,0,0-3.07-10.62s19.43-2.5,33.09,0c0,0-14.58-17.72-44.42-16.19a31,31,0,0,1,5.12-6s-8.37-7.48-37.79,11.42c0,0,3.21-9.49,9.59-14.41,0,0-8.46-2.93-36.58,28.59,0,0-.86-7.1,5.3-16.6C1351.48,116.61,1327.13,127.68,1317.06,164.68Z" transform="translate(-0.01 0.04)"/><path class="cls-4" d="M527.45,913.32c-94,87.58-103.25,0-103.25,0-1.84-79.74,76.52-47,76.52-47-48-77.87-138.24,11.37-163.7,39.24l-13.81,14.08c-87.52,76.9-96.28-6.31-96.28-6.31-1.84-79.74,76.52-47,76.52-47-56.23-91.27-170.55,47-170.55,47s-95,115.42-121,124.42h911l-.44-124.42c-94,87.58-103.25,0-103.25,0-1.84-79.74,76.52-47,76.52-47-48-77.87-138.24,11.37-163.7,39.24l-13.81,14.08c-87.52,76.9-96.28-6.31-96.28-6.31-1.84-79.74,76.52-47,76.52-47-56.23-91.27-170.55,47-170.55,47" transform="translate(-0.01 0.04)"/><path class="cls-5" d="M637.89,1170.74" transform="translate(-0.01 0.04)"/><path class="cls-6" d="M916.89,1037.74" transform="translate(-0.01 0.04)"/><path class="cls-7" d="M865.39,1039.74s110.5-324,230.5-239,0-285,0-285h388l20,524Z" transform="translate(-0.01 0.04)"/><path class="cls-8" d="M1168.71,470.81l.1,35.51L1161.1,514s-5.14-4.91-7.48-3.74c0,0,1.64-6.31-1.4-7.24l12.62.93-.53-33.81" transform="translate(-0.01 0.04)"/><path class="cls-9" d="M1138.91,410.06s-5.84-6.54-7.48-9.58-.93-7.24-.93-7.24-.23-8.65,14.25-9.81,16.82,15.42,16.82,15.42.93,13.55,2.34,16.59,9.81,3.5,9.81,3.5,41.59,6.07,51.17,35c0,0,39.72,34.58,31.54,33.88s-40.65-15.58-40.65-15.58c-63.32,15.89-82.95-31.08-82.95-31.08-5.61-8.41,2.34-24.3,2.34-24.3l3.74-6.78" transform="translate(-0.01 0.04)"/><path class="cls-8" d="M1131.9,401.56s-18.86,4-19.43,3.21,2.08-3,2.08-3c3-2.83,15.85-6.41,15.85-6.41a8.13,8.13,0,0,0,1.51,6.23" transform="translate(-0.01 0.04)"/><path class="cls-10" d="M1209.77,463.54c14.27,8.18,36.74,21,39,21.76,3.27,1.17,1.64-.93,1.64-.93s-4.21-4.21.93-1.87,2.91-.52,2.91-.52c-6.63-7.73-21.29-20.9-27-25.94l-4.9-1.11s1.17,3.27-1.17,2.34l-3.74-.7s4.21,4,.7,3-5.61-1.4-5.61-1.4,2.1,5.14-3.74,5.37Z" transform="translate(-0.01 0.04)"/><path class="cls-11" d="M1224.89,454c-9.58-29-51.17-35-51.17-35a25.12,25.12,0,0,1-7.69-1.68s-2.83-1.83-4.23-1.6c0,0-4,0-6.31,1.4a21.18,21.18,0,0,0-4.44,3c-1.87,1.64-.84,1.66-.84,1.66,2.45,9,9.52,29.42,23.51,31a20.53,20.53,0,0,0,4-.47s6.54,10.28,9.35,10.28,2.1-3.74,2.1-3.74c.93.47,21.73,8.65,20.33-.93l-.7-3s4.67,1.64,5.37.93-3-5.61-3-5.61,6.54,4.91,7.24,3.74-1.4-5.14-1.4-5.14l7.71,5.14" transform="translate(-0.01 0.04)"/><circle class="cls-12" cx="1144.74" cy="394.21" r="3.04"/><circle class="cls-13" cx="1143.34" cy="395.14" r="1.4"/><path class="cls-8" d="M1182.27,475l.1,35.51-7.71,7.71s-5.14-4.91-7.48-3.74c0,0,1.64-6.31-1.4-7.24l12.61,1-.53-33.81" transform="translate(-0.01 0.04)"/><polygon class="cls-14" points="1174.18 516.18 1178.15 511.97 1170.68 514.07 1174.18 516.18"/><polygon class="cls-14" points="1168.81 508.93 1168.81 512.91 1176.75 510.8 1168.81 508.93"/><polygon class="cls-14" points="1160.63 512.2 1164.6 508 1157.13 510.1 1160.63 512.2"/><polygon class="cls-14" points="1155.26 504.96 1155.26 508.93 1163.2 506.83 1155.26 504.96"/></svg>