<svg id="Layer_1" data-name="Layer 1" xmlns="http://www.w3.org/2000/svg" viewBox="0 0 872 378"><defs><style>.cls-1,.cls-2{fill:#edf6fb;stroke:#edf6fb;}.cls-1{stroke-miterlimit:10;}.cls-2{font-size:12px;font-family:MyriadPro-Regular, Myriad Pro;}</style></defs><title>tam</title><rect class="cls-1" x="410.5" y="204.85" width="56" height="72.65"/><path class="cls-1" d="M284.5,372.5" transform="translate(-245 -194)"/><polyline class="cls-1" points="0.5 225.5 0.5 204.5 391.67 204.5 871.5 204.5 871.5 225.5"/><path class="cls-1" d="M888.5,331.5" transform="translate(-245 -194)"/><path class="cls-1" d="M475.5,331.5" transform="translate(-245 -194)"/><path class="cls-1" d="M464.5,319.5" transform="translate(-245 -194)"/><path class="cls-1" d="M500.25,306.43" transform="translate(-245 -194)"/><path class="cls-1" d="M478.5,331.5" transform="translate(-245 -194)"/><path class="cls-1" d="M888.5,331.5" transform="translate(-245 -194)"/><path class="cls-1" d="M728.5,331.5h-253v67h11.15l-.15-40c0-13.51,27.5-13.51,27.5,0v39.6l-27.35.39h38l-.15-40c0-13.51,27.5-13.51,27.5,0v39.6l-27.35.39h38l-.15-40c0-13.51,27.5-13.51,27.5,0v39.6l-27.35.39h38l-.15-40c0-13.51,27.5-13.51,27.5,0v39.6l-27.35.39H638.5v-38c0-18.67,90-18.67,90,0v38h10.15l-.15-40c0-13.51,27.5-13.51,27.5,0v39.6l-27.35.39h38l-.15-40c0-13.51,27.5-13.51,27.5,0v39.6l-27.35.39h38l-.15-40c0-13.51,27.5-13.51,27.5,0v39.6l-27.35.39h38l-.15-40c0-13.51,27.5-13.51,27.5,0v39.6l-27.35.39h38.6v-67Z" transform="translate(-245 -194)"/><polygon class="cls-1" points="671 124.5 205 124.5 230.5 137.5 646.5 137.5 671 124.5"/><path class="cls-1" d="M915.5,318.5" transform="translate(-245 -194)"/><polygon class="cls-1" points="646.5 75.5 230.5 78.5 241.5 91.5 635.5 88.5 646.5 75.5"/><path class="cls-1" d="M891.5,269.5s-40-4-39-57l-339,2c1,51-38,58-38,58" transform="translate(-245 -194)"/><polyline class="cls-1" points="268.5 20.5 268.5 0.5 275.5 0.5 275.5 6.5 282.5 6.5 282.5 0.5 289.5 0.5 289.5 20.38"/><polyline class="cls-1" points="607.5 18.5 607.5 0.5 600.5 0.5 600.5 7.5 593.5 7.5 593.5 0.5 586.5 0.5 586.5 18.5"/><rect class="cls-1" x="548.5" y="235.5" width="243" height="23"/><rect class="cls-1" x="84.5" y="235.5" width="243" height="23"/><polygon class="cls-1" points="635.5 88.5 241.5 91.5 241.5 103.5 635.5 100.5 635.5 88.5"/><path class="cls-1" d="M449.5,318.5h466s-39-7-35-24l-394,3C486.22,312.85,468.76,316.11,449.5,318.5Z" transform="translate(-245 -194)"/><path class="cls-1" d="M754.5,419h-509V571.5H392V538.07c0-31.23,45.5-31.23,45.5,0V571.5h73V527.78c0-40.7,59-40.7,59,0V571.5h73V514.67c0-52.78,76.5-52.78,76.5,0V571.5h73V527.78c0-40.7,59-40.7,59,0V571.5h73V538.07c0-31.23,45.5-31.23,45.5,0V571.5h147V419Z" transform="translate(-245 -194)"/><text class="cls-2" transform="translate(415 244)">EDF6FB</text></svg>