<svg id="Layer_1" data-name="Layer 1" xmlns="http://www.w3.org/2000/svg" viewBox="0 0 992.08 721.9"><defs><style>.cls-1{fill:#fff;stroke:#000;stroke-miterlimit:10;}.cls-2{fill:#ffa552;}.cls-3{fill:#d18844;}.cls-4{fill:#f7ce5b;}.cls-5{fill:#acb0bd;}.cls-6{fill:#aa8d44;}.cls-7{fill:#cba94b;}</style></defs><title>wolf</title><line class="cls-1" x1="271.38" y1="501.15" x2="51.88" y2="720.65"/><polyline class="cls-1" points="271.38 501.15 51.88 720.65 51.88 699.15 73.63 677.4 73.63 656.15 28 701.77 28 680.15 52.19 655.96 72.69 635.46 72.69 614.15 51.53 635.3 50.88 634.65 50.88 613.15 72.63 591.4 72.63 570.15 27 615.77 27 594.15 51.19 569.96 71.69 549.46 71.69 528.15 50.53 549.3 49.88 548.65 49.88 527.15 71.63 505.4 71.63 484.15 26 529.77 26 508.15 50.19 483.96 70.69 463.46 70.69 442.15 49.53 463.3 48.88 462.65 48.88 441.15 70.63 419.4 70.63 398.15 25 443.77 25 422.15 49.19 397.96 69.69 377.46 69.69 356.15 48.53 377.3 47.88 376.65 47.88 355.15 69.63 333.4 69.63 312.15 24 357.77 24 336.15 48.19 311.96 68.69 291.46 68.69 270.15 47.53 291.3 46.88 290.65 46.88 269.15 68.63 247.4 68.63 226.15 0.5 294.27 0.5 272.15 271.44 1.21 271.38 28.65 271.38 501.15 990.88 501.15 770.63 721.4 51.38 720.15 271.38 501.15"/><path class="cls-1" d="M770.25,338.75" transform="translate(-99.13 -14.35)"/><polygon class="cls-2" points="214.38 560.15 334.38 560.15 334.38 427.15 494.38 427.15 494.38 560.15 614.38 560.15 614.38 381.15 214.38 381.15 214.38 560.15"/><polygon class="cls-2" points="271.38 324.4 271.13 324.4 214.38 381.15 614.38 381.15 671.13 324.4 271.38 324.4"/><polygon class="cls-3" points="614.38 560.15 671.38 503.15 671.38 497.15 671.38 324.15 614.38 381.15 614.38 560.15"/><polygon class="cls-3" points="334.38 560.15 391.38 503.15 391.38 427.15 334.38 427.15 334.38 560.15"/><path class="cls-1" d="M599.5,472.83" transform="translate(-99.13 -14.35)"/><rect class="cls-4" x="619.75" y="481.75" width="68.5" height="109" transform="translate(11.05 1169.61) rotate(-89.33)"/><rect class="cls-5" x="542.38" y="513.15" width="24" height="6"/><polyline class="cls-6" points="538.88 443.65 512.38 459.15 541.88 468.65 593.88 461.65 592.88 437.65"/><polyline class="cls-7" points="468.38 458.15 468.38 516.15 535.88 448.65 535.88 427.15 499.88 427.15 468.38 458.65 467.88 459.15"/><rect class="cls-4" x="468.38" y="459.15" width="109" height="57"/><polygon class="cls-7" points="577.38 459.15 609.38 427.15 609.38 484.15 577.38 516.15 577.38 459.15"/><polygon class="cls-4" points="535.38 448.15 588.38 448.15 609.38 427.15 535.38 427.15 535.38 448.15"/><rect class="cls-4" x="219.38" y="427.15" width="109" height="57"/><rect class="cls-4" x="219.38" y="488.15" width="109" height="67.5"/><rect class="cls-5" x="259.38" y="452.15" width="24" height="6"/><rect class="cls-5" x="259.38" y="513.15" width="24" height="6"/><rect class="cls-5" x="510.38" y="485.15" width="24" height="6"/></svg>